<svg width="159" height="80" viewBox="0 0 159 80" fill="none" xmlns="http://www.w3.org/2000/svg">
<g clip-path="url(#clip0_350_30362)">
<path d="M25.7219 24.6172C11.3684 23.2329 0.535156 24.6172 0.535156 24.6172V42.4874C1.67858 54.5976 13.0216 56.0211 13.1301 56.0018C15.1562 55.6365 24.6661 53.7238 25.7231 42.4829L25.7219 24.6172ZM21.2955 27.8106C22.2327 28.2166 22.5988 27.8501 22.8999 27.8501C23.8245 27.8501 23.8705 28.7118 23.8705 28.7118C23.8839 28.8067 23.8915 28.8737 23.8976 28.9165C23.8915 28.8737 23.8822 28.8067 23.8693 28.7118C23.8496 28.5665 23.4282 28.4826 23.1311 28.6125C22.7162 28.7913 21.6757 29.3871 21.2955 29.2741V27.8106ZM21.2697 30.8324C21.2697 30.8324 21.4428 31.1379 22.9374 30.9212C23.7495 30.8021 23.8705 31.7615 23.8705 31.7615H23.8693C23.6691 31.6029 23.2671 31.5294 22.9943 31.705C22.0878 32.2902 21.2697 32.2963 21.2697 32.2963V30.8324ZM13.3065 26.2397C13.3065 26.2397 15.4142 25.2525 16.9479 25.818C18.8254 26.5102 20.9952 26.2046 20.9952 26.2046V33.8962C19.5217 33.9955 16.4643 33.1564 15.6866 33.1564C14.0827 33.1564 13.3065 33.7828 13.3065 33.7828C13.3065 33.7828 13.3097 26.5025 13.3065 26.2397ZM13.0317 34.7486C13.7109 34.6525 14.238 35.3964 14.8887 35.0315C14.9383 35.3245 14.6679 35.3964 14.6679 35.3964C15.0892 35.4945 15.2906 35.2434 15.3722 35.0864C15.5336 35.7572 14.8576 35.7968 14.6457 35.8351C14.6445 35.8351 14.9892 35.9344 15.0061 36.1572C15.0517 36.7275 15.4162 36.6782 15.4953 36.6342C15.4832 36.7029 15.3685 37.0451 14.9593 36.7347C14.8887 36.8038 15.0715 36.9107 15.1058 37.1916C15.1534 37.5492 15.1425 37.8794 15.5534 38.0961C15.3015 38.2979 15.0045 37.7752 14.9774 37.8366C14.9484 37.9068 15.3286 38.0993 14.9105 39.0845C14.7204 38.9764 14.8261 38.9962 14.6037 38.7334C14.4354 38.593 14.3696 38.5595 14.5101 38.7931C14.7575 39.1031 14.8156 39.8058 14.7308 39.9967C14.5274 39.9083 14.5787 39.7448 14.3397 39.5249C14.3171 39.6193 14.4128 40.0871 14.6602 40.3103C15.0892 40.6966 15.241 41.1639 15.2487 41.2576C15.283 41.6071 15.1716 42.0704 15.1296 42.5225C14.925 42.4934 14.749 41.9114 14.701 41.9437C14.6396 41.9833 14.7264 42.5148 15.1143 42.8756C15.3015 43.4241 15.2249 43.7192 15.1752 43.7385C15.1098 43.766 14.9012 43.1779 14.7869 43.28C15.3395 44.6846 14.9528 45.1738 14.8071 45.6044C14.6933 45.1629 14.6352 44.8295 14.4935 44.3282C14.192 44.5635 14.1202 44.9155 13.7513 45.2347C13.7513 44.6628 13.4215 43.28 13.1584 42.9596C13.1471 42.9442 12.6842 44.197 12.4747 44.7548C12.2006 45.4761 12.1587 46.3802 12.4747 47.0849C11.7942 46.1146 11.7211 44.3133 12.3072 44.0687C12.3588 43.9399 12.2733 43.5158 12.1409 43.5678C12.1034 43.7757 12.1288 43.9529 11.9568 44.1559C11.506 44.0243 11.7106 43.4742 11.7522 43.2909C12.3366 42.5899 11.9706 42.428 11.9439 42.4462C11.8794 42.6052 11.8253 42.8022 11.6465 42.8756C11.2715 42.2323 11.5121 41.2192 12.2257 40.4613C12.2555 40.1803 11.9064 40.6735 11.678 40.6554C11.6198 40.1113 11.8176 39.1677 12.8234 39.1322C12.6305 39.0757 12.5271 39.0418 12.4823 38.8815C12.7859 38.8371 13.7404 38.7625 13.5826 38.0105C13.493 38.101 13.4635 38.2354 13.2141 38.3883C13.047 38.4892 12.8658 38.4981 12.7705 38.35C13.2125 38.2051 13.0676 37.6671 12.4884 37.8245C12.312 37.8733 12.0537 37.6885 12.0408 37.4822C12.1691 37.6122 12.4307 37.5157 12.5808 37.418C13.2306 36.9947 13.6278 37.6073 13.7154 37.7385C13.7424 37.7385 14.008 37.1258 13.0841 36.9624C13.0066 36.7473 12.7955 36.3683 12.1691 36.4139C11.9629 35.687 11.3373 36.0458 11.3587 36.3759C10.694 35.8868 11.37 35.2696 11.6376 35.1752C11.8241 35.1901 11.7829 35.7802 12.1082 35.6793C12.1881 35.6563 11.8551 35.2741 11.9835 35.1001C12.2822 34.9302 12.2761 35.3201 12.423 35.1752C12.4961 34.9181 12.7903 34.776 13.0317 34.7486ZM10.3796 36.8191C10.179 36.4768 10.6189 36.1511 10.6189 36.1511C10.6044 37.1109 11.8313 36.4522 12.4731 36.7577C12.6264 36.828 12.7346 36.964 12.7988 37.1065C12.1082 36.631 10.836 37.5981 10.3796 36.8191ZM5.59841 26.1388C5.59841 26.1388 7.60394 26.406 8.42892 26.0868C11.2287 25.0067 12.953 26.2135 12.953 26.2135V33.7767C12.953 33.7767 11.9552 33.2359 10.7819 33.1564C9.64862 33.0817 7.35734 33.9878 5.59841 33.8671V26.1388ZM4.2875 27.9494H5.24163V28.8878H4.2875V27.9494ZM4.2875 31.2207H5.24163V32.1586H4.2875V31.2207ZM3.16345 27.5095C4.24027 27.5095 4.24027 29.1522 3.16345 29.1522C2.06806 29.1522 2.09187 27.5095 3.16345 27.5095ZM3.16345 30.79C4.24027 30.79 4.24754 32.4307 3.16345 32.4307C2.04384 32.4307 2.04384 30.79 3.16345 30.79ZM4.46266 46.4371C4.16803 45.1003 4.1761 44.457 4.24471 43.0968C4.27579 42.4785 4.47921 41.5445 4.38759 41.5268C4.29839 41.511 2.89747 45.1169 2.56006 45.8244C1.96958 45.6242 2.92774 42.5027 4.14462 41.0009C4.26086 40.521 3.50652 41.4852 3.0573 41.8686C2.64401 42.2202 2.12295 42.6783 1.55386 42.5213C2.28439 41.7475 3.95815 40.3038 4.14462 39.9422C4.30122 39.6335 3.00281 40.9044 1.63055 40.4322C2.51889 39.9571 4.59101 38.8985 4.59383 38.1619L4.57487 38.1437C4.55186 38.1437 2.98021 39.135 1.95868 38.6587C2.71908 38.2382 5.35544 36.5636 6.07508 36.0886C6.41653 36.1636 6.55416 36.0397 6.66192 35.963C6.38666 35.9816 5.47451 36.1237 5.93583 35.3064C6.11342 36.0397 7.39326 35.3645 7.85256 35.2587C9.13402 34.9641 9.12473 36.3332 9.01536 36.8998C8.97419 37.1093 9.40807 37.259 9.62077 37.23C9.2547 38.1345 8.62749 37.282 8.55202 37.6255C8.52215 37.7664 8.1032 37.8761 8.10482 38.2232C8.10643 38.6967 8.29209 38.4388 8.30985 38.8069C8.32801 39.1641 8.15769 38.8848 8.19523 39.2714C8.25738 39.8841 9.27003 39.1903 9.68938 39.355C9.89805 39.4393 10.0369 39.6254 10.2419 39.5891C10.3013 39.5386 10.2746 39.3077 10.2657 39.2254C10.2431 39.0301 9.88352 39.0087 9.71602 38.7427C9.57113 38.5118 9.8819 37.8152 10.051 37.6106C10.2924 38.7596 11.37 38.4004 11.5314 39.6088C11.6332 39.9511 11.1601 40.3301 11.5436 40.8879C11.2586 41.1627 10.9176 42.472 11.5121 43.0879C11.4108 43.366 11.2792 44.009 11.8079 44.3851C11.6299 44.7625 11.6703 45.2283 11.8208 45.6989C11.4923 45.7009 11.5565 43.8487 9.58041 43.791C9.53641 43.7757 9.52511 44.0001 9.58162 44.0994C9.81934 44.5163 10.137 44.4921 10.0684 45.4712C10.0462 45.8058 9.84921 45.4123 9.74427 45.3203C9.50534 45.1092 9.32048 45.0801 9.21595 44.3928C8.41277 45.0204 8.49067 45.7848 8.54112 46.1711C8.54273 46.1727 8.36474 45.6884 8.16092 45.1919C8.15164 45.1657 8.97742 44.1708 9.10899 43.9359C10.7771 40.9335 8.03257 44.9058 8.02611 44.8908C7.8796 44.5482 7.75005 44.2552 7.66327 44.1607C7.68386 44.1208 8.14276 43.6106 8.3486 43.1779C9.63974 40.4935 7.58255 44.0731 7.50829 44.0078C7.3537 43.8669 7.22536 43.6913 7.12728 43.7551C7.10347 44.1664 7.00499 44.1099 7.03324 44.5316C6.81852 44.819 6.35679 45.2698 6.03471 45.4942C6.03471 45.4942 5.9552 44.7488 5.97498 44.7229C6.13763 44.5256 6.77211 43.8443 6.90166 43.6413C9.01536 40.3204 5.91242 44.44 5.90637 44.4065C5.88498 44.2749 5.71344 44.0582 5.53424 43.8734C5.53424 43.8734 6.21957 42.9382 6.38827 42.5911C7.67255 39.9483 5.35383 43.7632 5.32719 43.7494C5.2727 43.72 5.26665 43.72 5.20248 43.699C5.1383 43.6776 5.2727 42.9366 5.3615 42.4934C5.53747 41.6103 5.06969 42.3207 4.94296 43.7172C4.82389 43.7373 4.5341 43.766 4.42513 43.8657C4.49535 44.2386 4.58334 43.9508 4.73913 44.3084C4.92681 44.7395 4.47921 45.4426 4.86869 45.9572C5.01924 46.1562 5.02691 46.1223 4.99704 46.2522C4.7581 46.2349 4.6124 46.2304 4.46266 46.4371ZM5.16131 48.5362C4.85981 47.9635 4.74075 47.4868 4.57931 46.9444C4.80775 47.099 5.07897 47.1676 5.32558 47.2741C5.63272 48.0749 5.33405 48.8636 5.16131 48.5362ZM21.4368 48.7352C21.1551 49.1445 21.0404 48.3502 21.283 47.5825C21.6273 47.4457 21.9732 47.1765 22.2061 46.8726C22.07 47.5401 21.84 48.1601 21.4368 48.7352ZM22.6476 46.2276C22.2763 46.3515 22.1108 46.7628 21.8226 47.0053C20.9234 47.8933 19.5766 47.5724 18.5139 48.0491C17.5496 48.3986 16.8538 49.2898 15.8432 49.5142C15.5473 49.6106 15.4969 49.7592 15.6866 49.7527C15.798 49.7511 16.4131 50.3928 17.3987 49.898C17.7272 49.7325 18.7484 49.163 18.9203 49.1291C18.369 49.6579 18.0901 50.1269 17.5957 50.4053C17.2938 50.5749 16.0623 51.0148 14.8342 50.7779C14.2893 50.6709 13.8704 51.1734 14.0096 51.1629C14.3006 51.0838 14.6275 51.1234 14.8233 51.3813C15.1801 51.6593 15.6963 52.0093 16.1402 51.4894C16.2896 51.3171 16.9943 50.9506 17.6566 51.6242C16.9523 51.5863 17.0213 52.8556 15.6866 52.7059C15.191 52.7031 14.0992 51.5726 13.7872 51.9209C13.2351 52.5428 14.9746 53.1309 14.2203 53.9115C13.541 54.6162 12.7302 53.3493 12.7302 53.3493C13.1539 53.5285 13.9361 53.6427 13.5919 52.9517C13.4538 52.6789 13.1943 52.4323 13.1943 51.9253C13.135 51.6735 11.5779 53.9296 10.5487 52.9093C10.1447 52.5089 9.32492 51.6319 8.58309 51.2973C10.5487 51.1294 10.8473 51.9164 10.9418 52.0432C11.5702 52.8908 12.151 52.0291 12.2854 51.8793C12.49 51.6456 12.7798 51.3248 12.6765 51.2759C11.9145 50.9155 11.0431 50.8388 10.3937 51.1371C11.7865 49.2224 12.869 51.0148 12.869 51.0148C13.0216 51.1092 12.8303 49.8794 11.4527 49.8124C10.5923 49.7693 9.83549 50.5442 9.24259 50.5426C8.76028 50.5409 7.2976 49.5537 6.95292 48.6771C7.80413 49.3128 8.89024 49.6792 9.56547 49.2756C10.8376 48.5181 12.4404 49.6611 12.5167 49.5235C12.1599 49.2454 11.3514 48.1621 9.16671 48.7792C8.32034 49.2668 7.96396 48.4172 7.4425 48.4034C8.32801 47.6184 8.9415 48.0188 9.25187 48.043C9.32492 48.043 8.88217 47.6778 8.57098 47.6471C6.15822 47.3952 4.62976 46.7321 4.62976 46.7321C4.61765 46.7321 4.83116 46.2445 5.86883 46.5961C5.86883 46.5961 4.93771 46.0258 4.94618 45.2941C4.97565 44.8436 5.194 44.3589 4.84892 43.9835C6.24903 43.927 5.25535 45.8809 6.23773 46.3822C6.25993 46.3911 5.94834 45.916 6.38666 45.5479C6.58967 46.1223 7.08894 46.4189 7.44088 46.5105C7.52443 46.4661 7.62574 46.2906 7.62574 46.2906C7.25563 45.6779 7.20639 44.9659 7.30648 44.1478L7.32101 44.1405C7.40052 44.1454 7.53492 44.4219 7.63058 44.6249C7.83359 45.0648 7.82915 45.696 8.23639 46.2183C8.46161 46.5041 8.60247 46.7914 8.80387 46.9307C8.89185 46.7273 8.82607 46.3777 8.81315 46.2841C8.76633 45.9527 8.55847 45.3719 9.12635 44.8586C9.39071 45.6242 9.75235 45.401 9.80078 45.7695C9.86818 46.2829 9.84598 46.2001 9.79432 46.5977C9.82055 47.1402 10.315 47.2927 10.7537 47.6426C11.7437 48.1807 12.4008 48.4708 12.8315 49.161C13.0422 47.997 9.90128 47.7633 10.3061 45.5185C10.2637 44.6204 10.4171 44.5454 9.78181 43.9985C11.0431 44.0352 11.7296 46.1037 11.7974 46.4831C11.9242 47.1753 12.3447 47.2116 12.9235 48.1177C13.0066 48.1467 11.8894 45.7069 13.223 43.6163C13.223 43.6163 13.6714 44.7016 13.4587 45.4131C13.3319 45.8426 13.4498 46.3164 13.474 46.5852C13.4978 46.8605 13.4199 45.5951 14.3708 44.9409C14.4306 45.4208 14.8887 46.1602 14.4536 46.9553C13.9248 47.9223 13.8873 47.5752 13.8796 48.7639C13.9265 48.7425 14.0641 47.9437 14.4277 47.4897C15.1938 46.5319 14.6457 46.0169 15.394 45.1859C15.4533 45.6 15.5582 45.4361 15.6043 45.8058C15.7043 46.6373 14.837 47.545 15.0295 47.5175C15.2503 47.4852 15.6043 47.2943 15.7225 46.6647C15.7225 46.6647 16.0414 47.2394 15.7491 47.4303C15.2204 47.7783 15.111 48.1512 15.1938 48.5713C15.6176 48.0644 16.1967 47.5038 16.0971 46.7826C16.1451 46.3471 16.6161 46.1711 16.7101 45.1596C16.7255 44.9917 16.8926 44.7883 17.0617 44.6979C16.9882 45.2666 17.4298 45.8551 16.9273 46.5501C17.0419 46.611 17.4673 46.0076 18.0868 46.2276C16.8417 46.4504 17.2042 47.8013 16.252 48.4264C15.9639 48.6129 16.0119 48.8248 15.9263 48.8498C16.7787 48.801 17.4346 47.7859 17.5484 47.71C18.4061 47.1305 18.5918 47.0409 18.9348 46.1025C19.0692 45.7469 18.9707 45.5875 19.4466 45.1064C19.6545 45.5814 19.353 46.5654 19.2803 46.7765C19.1273 47.2302 18.5873 47.6229 18.7019 47.6229C20.9985 46.6098 20.9686 45.9281 21.5179 45.204C21.6818 44.9276 22.4987 44.4465 22.8058 44.4005C22.7299 44.5518 22.4131 44.8069 22.3986 45.0801C22.3707 45.5891 22.2061 45.8991 21.9494 46.3059C22.0922 46.4831 22.3659 45.9713 22.6476 46.2276ZM19.9172 46.6373C19.6185 46.9 19.4232 46.9928 19.4886 46.8633C19.5608 46.7168 19.6153 46.5945 19.6561 46.4863C19.6682 46.4476 19.9172 46.6373 19.9172 46.6373ZM19.7202 46.2857C19.7876 46.0476 19.7876 45.8837 19.8187 45.673C19.8308 45.583 19.8341 45.5935 19.8377 45.5185C19.8393 45.4942 20.4871 46.0565 20.523 46.0807C20.3604 46.2841 20.2219 46.3559 20.0677 46.5012C19.9564 46.4068 19.7154 46.3087 19.7202 46.2857ZM23.3531 40.2889C22.7715 39.6883 22.1031 38.1591 21.8279 38.3835C21.7952 38.396 22.9342 40.1682 23.4956 41.2192C23.7805 41.7512 24.0134 42.5136 24.0336 43.0879C24.1228 45.9188 23.6974 45.7021 23.6974 45.7021C23.0343 43.4714 22.7223 40.8786 21.7552 39.6835C21.3698 39.204 22.7901 41.7754 22.8506 44.0901C22.5774 44.1619 21.8561 44.4509 21.6818 44.733C21.7746 43.1735 21.2697 41.641 21.1099 41.2713C20.7967 40.55 21.2491 42.9491 21.2802 43.502C21.2818 43.5246 18.6906 40.1727 20.255 42.7562C20.6607 43.4241 21.2927 43.8625 21.2939 43.8734C21.304 44.3391 21.2725 44.6814 21.1849 44.9308C21.0251 45.0591 17.6566 40.4491 19.5184 43.6413C19.7501 44.0368 21.1002 45.2347 21.0893 45.2589C21.0029 45.441 20.8516 45.7053 20.6417 45.9011C20.6074 45.8652 19.8651 45.3187 19.8591 45.2852C19.805 44.9288 19.8014 44.5926 19.3618 44.8448C19.3618 44.8448 17.7034 42.914 18.4719 44.2673C18.8065 44.8586 19.0272 44.9243 19.116 45.0297C19.116 45.0297 18.8598 45.3796 18.7766 45.7493C18.7439 45.8978 17.3373 44.1926 17.8895 45.2634C18.0663 45.6056 18.708 45.9818 18.7019 46.0048C18.6362 46.2292 18.5688 46.4447 18.4977 46.5852C18.4109 46.764 17.1763 47.748 17.1775 47.7464C17.1775 47.7464 17.4201 46.9674 17.9448 46.5852C18.2434 46.3668 18.2447 46.4153 18.4436 46.2906C18.4392 46.1755 18.3278 45.9862 18.1841 45.9374C18.0037 45.8732 17.4201 45.9798 17.4201 45.9798C17.475 45.6884 17.2183 45.0591 17.2211 44.3653C17.0028 44.3884 16.6161 44.7274 16.5237 44.9199C16.4567 46.0674 16.206 45.7239 15.9727 46.5501C15.7193 46.2046 15.9909 45.7069 15.7415 45.3828C15.4 44.9365 15.3488 44.6358 15.2971 44.0873C15.377 44.0429 15.7269 43.6562 15.4085 42.8482C15.3564 41.5764 15.9247 41.0905 14.9088 40.2001C14.9948 40.1727 15.0562 39.5354 15.0562 39.5338C15.804 39.9325 15.6551 39.0724 15.9477 38.9045C16.4107 38.6341 16.3267 38.356 16.118 38.0093C17.4435 38.3867 16.0591 39.2896 16.6581 39.311C17.0932 39.3247 17.3842 39.2133 17.5735 38.9215C17.7736 38.6127 17.5391 38.4234 18.101 37.9205C18.1555 37.8733 18.306 37.5383 17.86 37.4455C17.7627 37.4257 17.86 37.0451 17.86 37.0451C17.5032 37.3474 17.3926 37.7708 16.8179 37.502C16.5253 37.3644 16.3344 37.5004 16.2137 37.5585C16.2137 37.5585 16.1532 37.3184 16.3957 37.2376C17.0241 37.027 17.1791 36.7759 17.1448 36.6403C17.0601 36.3134 17.0342 36.6403 17.0524 36.2964C17.0601 36.1588 17.2183 35.9739 17.3499 35.8149C17.7749 35.3019 18.078 35.4945 18.1857 35.5401C18.4319 35.3492 18.4767 35.3613 18.7064 35.2713C19.1003 35.1151 19.9547 35.3734 20.4322 35.595C20.6639 35.6991 20.9387 35.7616 21.21 35.7019C21.2067 35.8424 21.1099 35.9174 21.0126 35.9449C20.8637 35.9921 20.6861 35.9449 20.6978 36.0551C20.7042 36.1176 20.9073 36.1297 21.0356 36.1648C21.7435 36.3558 22.6581 36.9898 22.0579 36.8574C21.9853 36.8421 22.491 37.2344 22.8716 37.7446L24.2197 39.0543C24.1571 39.1289 23.6853 39.0619 22.1879 37.6578C21.9744 37.8475 24.0094 39.3812 24.8485 41.0081C24.7766 41.0602 23.7301 40.6784 23.3531 40.2889ZM18.6047 28.3772C18.6063 28.5391 18.7516 28.7732 18.8485 28.86C18.9586 28.7772 19.1181 28.6368 19.3542 28.5912C19.3796 28.7042 19.4337 28.7732 19.5233 28.8369L19.8308 28.5028C19.8308 28.5028 19.6936 28.3942 19.6141 28.2961C19.6141 28.2259 19.6141 27.5523 19.644 27.5172C19.4123 27.3109 19.2428 27.2831 19.1427 27.2984C18.957 27.3258 18.7645 27.566 18.7052 27.6455C18.6592 27.7097 18.6721 27.7888 18.7052 27.8199C18.7407 27.8485 18.7887 27.8792 18.8408 27.9111C18.8319 27.905 18.8234 27.9006 18.8158 27.8973C18.7286 27.9785 18.6002 28.2166 18.6047 28.3772ZM19.093 28.5912C19.0095 28.5237 18.796 28.2642 18.953 27.9756C18.9316 27.9615 18.9082 27.951 18.8876 27.9373C19.0333 28.0196 19.204 28.0899 19.3368 28.1327C19.3368 28.2489 19.332 28.3526 19.332 28.3893C19.332 28.4398 19.3368 28.4798 19.3396 28.5181C19.2617 28.5221 19.1931 28.5439 19.093 28.5912ZM18.7798 27.7783C18.7516 27.7569 18.7484 27.7432 18.7843 27.6867C18.8529 27.5842 18.9316 27.4958 18.9861 27.5002C19.0333 27.5002 19.3368 27.6608 19.3275 27.746C19.3368 27.8073 19.3396 27.9341 19.338 28.0624C19.1871 28.0075 18.8888 27.8683 18.7798 27.7783ZM14.1973 26.718C14.3111 26.7208 14.4306 26.6857 14.5537 26.8677C14.6978 27.074 15.1486 28.0426 15.2563 28.4491C15.308 28.3635 15.7584 27.0619 15.7835 26.9243C15.8165 26.7882 15.9102 26.6571 16.0434 26.6171C16.1794 26.582 16.1673 26.5239 16.0656 26.5134C15.9639 26.5009 15.6256 26.5299 15.5054 26.5485C15.3831 26.5667 15.3831 26.6264 15.4848 26.6385C15.5849 26.6506 15.6055 26.6704 15.6583 26.8064C15.7068 26.9424 15.4626 27.5644 15.4037 27.7097C15.331 27.6027 15.0731 27.034 15.0731 26.9578C15.0731 26.9029 15.1873 26.8492 15.2358 26.8342C15.331 26.8064 15.3298 26.7406 15.258 26.7273C15.0562 26.6962 14.3458 26.6341 14.2191 26.6203C14.1299 26.6111 14.0875 26.718 14.1973 26.718ZM17.4673 27.3735C17.4657 27.6959 17.5125 28.1815 17.5811 28.3756C17.6255 28.4919 17.7567 28.6799 17.8455 28.6218C17.9052 28.5851 18.032 28.3328 18.0723 28.301C18.1421 28.2445 18.0739 28.148 18.015 28.2045C17.9508 28.2626 17.8943 28.1742 17.8766 28.1145C17.8556 28.0564 17.7958 27.346 17.8253 27.3323C17.8253 27.3323 18.4017 27.2621 18.4574 27.2621C18.4961 27.2621 18.4977 27.1365 18.4574 27.1365C18.3855 27.1365 17.8992 27.1458 17.8867 27.1196C17.8519 27.0143 17.8423 26.8875 17.9258 26.7132C17.9678 26.6248 17.8867 26.588 17.8556 26.6768C17.8253 26.7624 17.5811 27.0982 17.3301 27.2068C17.2001 27.2588 17.4871 27.3779 17.4673 27.3735ZM16.5644 26.7499H16.6742L16.8086 26.6341V26.4476L16.6286 26.2732L16.4502 26.4262L16.4534 26.6401L16.5644 26.7499ZM16.1673 27.2665L16.4421 27.4239L16.4551 28.1649C16.4764 28.2533 16.5491 28.3405 16.6581 28.4491H16.8805L17.1166 28.1403C16.9446 28.1113 16.8744 28.0778 16.7537 27.9417L16.7582 27.1777L16.516 26.9347L16.4329 26.944L16.0523 27.277C16.0135 27.3351 16.1164 27.3351 16.1673 27.2665ZM17.3886 29.1655C17.1852 29.0924 17.0044 28.9592 16.943 28.8507C16.8881 28.8967 16.7073 29.094 16.6048 29.1562C16.5818 29.048 16.4159 28.9318 16.2807 28.9076C16.2375 28.9548 15.9195 29.1962 15.7758 29.2664C15.731 29.2878 15.7475 29.3855 15.8105 29.3596C15.8698 29.335 15.9667 29.2603 16.0805 29.2067C16.2121 29.2587 16.361 29.3919 16.3731 29.6656C16.386 29.9679 16.2282 30.2871 16.0563 30.4324C16.3533 30.3545 16.3921 30.1785 16.5552 29.9679C16.6448 30.1023 16.8118 30.2625 16.9333 30.3315C17.0193 30.275 17.2623 30.0014 17.3155 29.9449C17.1404 29.8976 16.8018 29.72 16.7178 29.5307C16.6508 29.3919 16.6657 29.3261 16.7327 29.2143C16.7925 29.2926 17.2029 29.4819 17.3886 29.1655ZM17.0419 32.1025C16.9806 32.1586 16.8151 32.1175 16.7925 32.0626C16.7743 32.0016 16.7537 31.3002 16.782 31.2881C16.782 31.2881 16.9818 31.2832 17.0354 31.2848C17.0774 31.2848 17.0811 31.1581 17.0403 31.1581C16.9668 31.1565 16.8058 31.1411 16.7957 31.1121C16.7727 31.0463 16.8018 30.834 16.8429 30.7452C16.8853 30.6584 16.8042 30.6201 16.7727 30.7057C16.74 30.7973 16.5297 31.0193 16.3158 31.123C16.1951 31.1823 16.4789 31.2953 16.4599 31.2909C16.4551 31.6118 16.3909 32.136 16.4999 32.3027C16.5689 32.4048 16.7239 32.4722 16.8272 32.4307C16.9273 32.3911 17.054 32.1925 17.0915 32.1586C17.167 32.1037 17.1028 32.044 17.0419 32.1025ZM18.6156 32.2196C18.5889 32.1037 18.6216 31.6683 18.6249 31.4802C18.553 31.372 18.436 31.242 18.3169 31.1533C18.2321 31.2299 18.1167 31.3325 17.9835 31.4741C18.084 31.4604 18.2794 31.5004 18.2882 31.5843C18.2943 31.6929 18.3108 31.9298 18.2882 32.113C18.2664 32.2979 17.7676 32.2139 17.7615 32.0884C17.7506 31.9601 17.7866 31.592 17.7898 31.418C17.7196 31.3094 17.6768 31.2497 17.5468 31.1533C17.4717 31.2299 17.3406 31.3171 17.2167 31.4531C17.3184 31.4604 17.4031 31.4834 17.4528 31.5799C17.5032 31.6775 17.4613 32.0856 17.4673 32.2426C17.475 32.3972 17.569 32.4291 17.6897 32.5546C17.8096 32.5255 18.1482 32.3847 18.2616 32.3056C18.2511 32.4307 18.4109 32.5715 18.5046 32.6006C18.5675 32.5316 18.6362 32.4932 18.7286 32.4077C18.6374 32.3483 18.6499 32.3391 18.6156 32.2196ZM14.6146 32.1647C14.5129 32.2123 14.4112 32.1756 14.4023 32.0594C14.393 31.9419 14.393 30.8005 14.4023 30.637C14.3236 30.637 14.1036 30.6326 14.0294 30.6249C14.0362 30.7791 14.0923 32.1037 14.0754 32.2886C14.0641 32.3939 14.2049 32.5041 14.3353 32.5925C14.3979 32.5178 14.5335 32.3193 14.6457 32.2349C14.7115 32.18 14.6667 32.1449 14.6146 32.1647ZM19.5039 29.2587C19.0769 29.4101 18.8129 29.7463 18.8004 30.145C18.7928 30.3787 18.9913 30.8602 19.401 30.8614C19.5277 30.7408 19.6605 30.6112 19.7937 30.524C19.8785 30.3727 20.002 30.1281 19.9923 29.94C19.9814 29.7112 19.8409 29.3689 19.5039 29.2587ZM19.5338 30.614C19.4559 30.5773 19.1665 30.3529 19.1003 30.183C19.0143 29.9541 19.0143 29.6987 19.2585 29.5509C19.4494 29.6208 19.6714 29.8088 19.692 29.9816C19.7186 30.2048 19.6545 30.4703 19.5338 30.614ZM16.0995 31.9798C16.028 32.0287 15.9792 32 15.8589 31.8717C15.8638 31.801 15.8505 31.2311 15.8791 31.1993C15.7697 31.083 15.6696 30.9212 15.5413 30.9333C15.3532 30.9502 15.1159 31.2772 15.0562 31.3611C15.0089 31.4225 15.0578 31.6561 15.0937 31.6852C15.1058 31.6973 15.1127 31.6973 15.1232 31.7082C15.034 31.7905 14.8774 32.0077 14.8814 32.1647C14.8842 32.3286 14.9625 32.4844 15.0562 32.5715C15.2172 32.4597 15.3177 32.3056 15.5849 32.203C15.6176 32.3269 15.7056 32.3467 15.8105 32.4246C15.8727 32.356 16.0995 32.0779 16.1495 32.0287C16.2 31.9798 16.1717 31.9326 16.0995 31.9798ZM15.5695 32.0501C15.4969 32.1025 15.4097 32.1481 15.308 32.197C15.2281 32.1312 15.111 32.0747 15.2531 31.8043C15.3581 31.8624 15.4117 31.8257 15.574 31.8087C15.5728 31.9096 15.5695 32.0028 15.5695 32.0501ZM15.1716 31.6271C15.1425 31.6041 15.134 31.3873 15.1684 31.3325C15.2358 31.2299 15.2802 31.2102 15.3342 31.2102C15.3831 31.213 15.574 31.3429 15.5627 31.4301C15.5728 31.4878 15.574 31.6073 15.574 31.728C15.4311 31.7462 15.331 31.7615 15.1716 31.6271ZM18.0211 29.4008C18.1034 29.4928 18.1886 29.5977 18.3153 29.5977C18.4372 29.5994 18.5659 29.5429 18.6063 29.4912C18.5046 29.4101 18.2733 29.1655 18.2261 29.1199C18.109 29.1841 17.6005 29.45 17.5569 29.7539C17.4939 30.2048 17.636 30.2964 17.835 30.5422C17.9464 30.6826 18.132 30.6903 18.2168 30.6673C18.3076 30.6031 18.6406 30.2871 18.6781 30.2488C18.7124 30.2092 18.664 30.1741 18.6216 30.2124C18.5809 30.2504 18.5974 30.2673 18.5421 30.275C18.4856 30.2839 18.2572 30.3222 18.126 30.2536C17.9617 30.1676 17.7454 29.963 17.7958 29.7156C17.8318 29.5307 17.9617 29.4561 18.0211 29.4008ZM19.5798 31.638C19.5108 31.5613 19.42 31.4531 19.2803 31.3458C19.196 31.4027 18.9554 31.6239 18.8529 31.682C19.0006 31.6852 19.2198 31.734 19.2274 31.8717C19.2319 31.9819 19.2198 32.6736 19.2274 32.8004C19.3183 32.8189 19.4244 32.8097 19.5544 32.802C19.5608 32.7043 19.5588 31.9068 19.5608 31.8103C19.6056 31.7857 19.6561 31.7615 19.6827 31.7385C19.7324 31.7768 19.8873 31.954 19.9769 32.0016C20.0383 31.954 20.1977 31.8148 20.2679 31.7478C20.3414 31.6743 20.2615 31.6271 20.1977 31.6868C20.1473 31.6271 20.0096 31.5141 19.8873 31.4269C19.8171 31.485 19.6714 31.5904 19.5798 31.638ZM20.1977 30.2246C20.2522 30.2415 20.3519 30.2564 20.456 30.2625C20.5214 30.2718 20.4996 30.162 20.4492 30.1418C20.3995 30.1249 20.2877 30.1035 20.2191 30.1023C20.1444 30.1023 20.1097 30.1983 20.1977 30.2246ZM20.2022 29.986C20.2583 30.0014 20.362 30.0195 20.4621 30.0244C20.5307 30.0304 20.5085 29.9247 20.4588 29.9049C20.4056 29.8839 20.293 29.8625 20.2219 29.8625C20.1517 29.8625 20.1142 29.963 20.2022 29.986ZM14.4023 30.3925C14.6352 30.524 15.0263 30.4994 15.3205 30.4203C15.4311 30.388 15.4925 30.382 15.4892 30.4764C15.4892 30.5378 15.574 30.524 15.574 30.4796C15.574 30.4368 15.5772 29.9816 15.5772 29.9311C15.5772 29.8746 15.4953 29.8823 15.4953 29.9311C15.4953 30.0074 15.4953 30.0288 15.4206 30.1374C15.2188 30.4368 14.7115 30.4247 14.4415 30.0595C14.3486 29.934 14.2647 29.7677 14.3708 29.737C14.4786 29.7035 14.8039 29.7705 15.019 29.7891C15.1486 29.7979 15.4456 29.8274 15.4832 29.8504C15.5159 29.8746 15.5667 29.9065 15.5667 29.8411C15.5695 29.7782 15.5695 29.5675 15.5695 29.5033C15.5695 29.4407 15.5207 29.4714 15.4848 29.4928C15.4472 29.5199 15.1296 29.5703 15.0025 29.5949C14.8745 29.6179 14.4818 29.6498 14.3789 29.6147C14.2723 29.5796 14.3067 29.3657 14.4023 29.245C14.676 28.883 15.2297 28.9076 15.4299 29.2099C15.4985 29.314 15.4985 29.3398 15.4985 29.4177C15.4985 29.4666 15.5788 29.4714 15.5788 29.4177C15.5837 29.3657 15.5849 28.8188 15.5849 28.7744C15.5849 28.7316 15.5054 28.7151 15.5054 28.7744C15.5054 28.8143 15.4178 28.8369 15.3298 28.8143C15.1579 28.7607 14.6574 28.8369 14.4338 28.9592C14.2348 29.0739 13.9293 29.335 13.9337 29.6635C13.9394 30.2048 14.1549 30.2504 14.4023 30.3925ZM13.1067 35.4271C12.8751 35.6946 13.1378 35.913 13.1378 35.913C13.0422 35.8977 12.9049 35.8654 12.8173 35.8149C12.8004 35.913 12.9332 35.9465 12.9961 35.9893C13.4853 36.1911 13.8082 35.7205 14.238 35.6361V35.618C13.9499 35.5768 13.723 35.3754 13.4603 35.2757C13.0942 35.1381 12.7076 35.4194 12.7076 35.4638C12.7076 35.5615 12.8125 35.6119 13.1067 35.4271ZM13.4131 35.4073C13.5241 35.4392 13.7872 35.5873 13.8813 35.6502L13.4131 35.8851C13.4131 35.8851 13.5426 35.7451 13.5426 35.6442C13.541 35.5066 13.4131 35.4073 13.4131 35.4073ZM11.9645 29.019H12.0678L12.193 28.906V28.7272L12.0255 28.556L11.8584 28.7058L11.8612 28.9136L11.9645 29.019ZM12.335 27.9494C12.3948 27.9571 12.4763 27.8134 12.1134 27.7908C12.0477 27.7876 11.9455 27.9099 12.335 27.9494ZM12.3229 32.107C12.2854 32.1647 12.1599 32.1235 12.1239 32.0654C12.1239 31.9984 12.0602 31.2832 12.0884 31.2497C11.9851 31.1335 11.8079 30.8752 11.6876 30.8893C11.5137 30.9058 11.2542 31.1549 11.1981 31.236C11.1557 31.2969 11.2102 31.5904 11.2433 31.6194C11.2522 31.6255 11.257 31.6287 11.2655 31.636C11.1496 31.7554 11.0629 31.8882 11.0629 32.0565C11.0697 32.2151 11.1226 32.3713 11.2836 32.4428C11.4285 32.3391 11.6106 32.2107 11.7894 32.1772C11.8753 32.2825 12.0097 32.3516 12.0896 32.4137C12.1449 32.3483 12.3229 32.2046 12.3718 32.1586C12.4186 32.1114 12.3718 32.044 12.3229 32.107ZM11.4745 32.1481C11.4047 32.0872 11.148 31.9112 11.3761 31.7203C11.4967 31.8027 11.5658 31.7905 11.7171 31.7768C11.7106 31.8608 11.7046 31.9358 11.7046 31.9677C11.7046 32.0061 11.7211 32.0335 11.7296 32.0654C11.6513 32.0933 11.5512 32.1082 11.4745 32.1481ZM11.7236 31.6973C11.5924 31.7005 11.4794 31.659 11.3357 31.5355C11.3091 31.5108 11.2824 31.349 11.3135 31.2953C11.3761 31.1948 11.3761 31.1642 11.4326 31.1642C11.4745 31.1642 11.7393 31.3248 11.7256 31.4099C11.7345 31.4713 11.7296 31.5843 11.7236 31.6973ZM12.3419 27.7173C12.4008 27.7157 12.4464 27.5781 12.1179 27.5599C12.0537 27.5535 11.9536 27.7327 12.3419 27.7173ZM10.8643 27.7722C10.7521 27.8667 10.5971 28.0152 10.4534 28.1496C10.5107 28.2122 10.8255 28.3603 11.0027 28.3558C11.2683 28.3498 11.5153 28.2122 11.6675 28.0899C11.9439 27.8699 11.8467 27.6378 11.5658 27.4728C11.5387 27.4574 11.5121 27.4514 11.4854 27.4469C11.661 27.3077 11.814 27.1838 11.8535 27.1349C11.7405 27.057 11.617 26.869 11.3434 26.8568C11.0697 26.8464 10.7597 27.0938 10.6597 27.2512C10.5248 27.4574 10.6895 27.6378 10.8643 27.7722ZM11.3539 28.1722C11.1912 28.2473 10.9002 28.0366 10.8554 27.951C10.9151 27.899 11.0273 27.8086 11.1525 27.7097C11.2449 27.7508 11.3405 27.7936 11.4418 27.853C11.5908 27.9373 11.5153 28.0992 11.3539 28.1722ZM11.0584 27.0982C11.1448 27.1119 11.3345 27.2128 11.4467 27.3182C11.4213 27.3367 11.3526 27.3949 11.276 27.4542C11.2328 27.4619 11.1868 27.4667 11.1399 27.4619C11.0003 27.4421 10.9333 27.3367 10.8691 27.2528C10.8017 27.1628 10.9745 27.0893 11.0584 27.0982ZM12.2692 29.4008L12.1288 29.1929L12.0537 29.2038L11.7296 29.5017C11.642 29.5812 11.7211 29.6163 11.8176 29.5307L11.9851 29.6317L11.9912 30.3327C12.0081 30.4171 12.082 30.4473 12.1853 30.5527L12.3665 30.3973L12.5106 30.2427C12.3479 30.2108 12.3479 30.2213 12.2632 30.145L12.2692 29.4008ZM10.0292 28.2364C10.1507 28.2364 10.3061 28.0761 10.3832 28.0394C10.5458 27.9603 10.4861 27.8792 10.298 27.922C9.88957 28.0257 9.69947 27.6988 9.6583 27.6104C9.82257 27.4421 10.1043 27.1672 10.2746 27.0252C10.162 26.9226 10.1148 26.7483 9.915 26.7346C9.73983 26.7394 9.33098 26.938 9.25954 27.4558C9.19214 27.9539 9.6583 28.2227 10.0292 28.2364ZM9.77131 26.9029C9.81611 27.0175 9.93518 27.0982 10.001 27.1382C9.88513 27.2528 9.70391 27.4574 9.62803 27.5123C9.52511 27.1809 9.56386 27.0663 9.77131 26.9029ZM6.88108 30.411C6.94041 30.2916 6.96745 30.252 7.0736 30.1128C6.86574 30.1467 6.7047 30.1099 6.55254 29.9937C6.23773 29.7507 6.335 29.358 6.42742 29.2252C6.59775 28.973 6.83749 29.3338 6.88108 29.381C6.93597 29.314 7.03324 29.2192 7.12728 29.1457C7.03445 29.0218 6.95736 28.9076 6.89319 28.8325C6.6934 28.9044 6.39877 29.0848 6.27204 29.2728C6.09122 29.5489 5.99274 29.9892 6.30675 30.2459C6.45568 30.3694 6.57757 30.4659 6.88108 30.411ZM7.35855 29.3596C7.32707 29.4315 7.37066 29.6882 7.40375 29.7172C7.42716 29.737 7.44411 29.7507 7.4647 29.7661C7.34886 29.8746 7.23948 29.9662 7.24231 30.1281C7.24715 30.2827 7.37066 30.4203 7.53048 30.4934C7.61524 30.3634 7.74843 30.2839 7.8901 30.2504C7.90221 30.3743 7.93086 30.4643 8.01239 30.5269C8.07051 30.4627 8.30339 30.2613 8.3486 30.2153C8.39905 30.1697 8.36151 30.1128 8.30339 30.1697C8.26909 30.1999 8.18594 30.1527 8.16092 30.1128C8.16092 30.0458 8.16092 29.3338 8.19079 29.2999C8.08585 29.1853 7.98575 28.9455 7.8683 28.958C7.69031 28.973 7.43483 29.1808 7.35855 29.3596ZM7.88404 30.0381C7.88283 30.0764 7.88404 30.1099 7.88404 30.1434C7.84651 30.1527 7.80252 30.162 7.75005 30.1894C7.6782 30.1281 7.33473 30.0151 7.55914 29.8335C7.69798 29.9158 7.75126 29.8532 7.88404 29.7693C7.88566 29.8855 7.88404 29.9969 7.88404 30.0381ZM7.67538 29.1764C7.71978 29.1792 7.87961 29.3733 7.8683 29.4589C7.87638 29.5049 7.8796 29.5921 7.88283 29.6821C7.68386 29.8088 7.6213 29.8056 7.48528 29.653C7.41788 29.5719 7.42434 29.4254 7.45541 29.3689C7.51676 29.2741 7.62453 29.1764 7.67538 29.1764ZM8.22792 27.3949C8.23478 27.5046 8.21742 28.1754 8.2263 28.2993C8.30985 28.3175 8.41277 28.3102 8.53183 28.3038C8.54112 28.2061 8.53668 27.3658 8.53668 27.271C8.58027 27.2467 8.62749 27.2209 8.64928 27.2007C8.69933 27.2391 8.7966 27.3811 8.87409 27.4284C8.93544 27.3828 9.09043 27.2831 9.15783 27.2177C9.22644 27.1487 9.15299 27.0982 9.09043 27.1579C9.04321 27.1043 8.92616 26.9824 8.8636 26.9089C8.7966 26.9626 8.64283 27.0554 8.55726 27.1043C8.48946 27.0268 8.40672 27.0268 8.27232 26.9226C8.19886 26.9791 8.03378 27.0982 7.94539 27.2068C8.10199 27.2528 8.21864 27.2601 8.22792 27.3949ZM6.67322 28.5011C6.88875 28.6275 7.18822 28.5451 7.45985 28.4656C7.56762 28.4366 7.58255 28.5056 7.6334 28.5819C7.72139 28.6997 7.79323 28.6247 7.72906 28.5286C7.70525 28.4979 7.66045 28.4475 7.65722 28.3865C7.65722 28.3454 7.66327 27.9159 7.66327 27.8606C7.66327 27.8106 7.56156 27.815 7.56156 27.8606C7.55712 27.9373 7.56762 28.0669 7.499 28.1742C7.31133 28.4644 6.95131 28.5851 6.70026 28.2275C6.61389 28.1101 6.59331 27.9296 6.58241 27.8013C6.56465 27.6302 6.69502 27.4086 6.70309 27.3888C7.02315 26.967 7.46954 27.2802 7.50546 27.4514C7.53048 27.566 7.55551 27.7048 7.55551 27.7783C7.55268 27.8271 7.65722 27.8227 7.66045 27.7722C7.66045 27.7186 7.66327 27.0724 7.66327 27.0268C7.66489 26.9852 7.5769 26.9715 7.57569 27.0268C7.57125 27.1289 7.51151 27.1382 7.432 27.1135C7.27056 27.0647 6.90933 26.9868 6.70147 27.1075C6.51662 27.2161 6.2349 27.4695 6.23934 27.7888C6.24459 28.3147 6.44357 28.3591 6.67322 28.5011ZM9.14007 30.026C9.09366 30.0716 8.97136 29.9646 8.96531 29.957C8.92616 29.9126 8.86804 29.3015 8.89508 29.2878C8.89508 29.2878 9.28295 29.2406 9.33421 29.2406C9.37255 29.2434 9.3786 29.1199 9.33542 29.1183C9.27286 29.1183 8.97742 29.1594 8.96692 29.1304C8.95118 29.0662 8.91002 28.8478 9.00728 28.6614C9.05289 28.5803 9.00567 28.5028 8.9758 28.5851C8.9415 28.6707 8.69933 29.0464 8.54112 29.109C8.41277 29.161 8.42892 29.1917 8.51004 29.2115C8.57543 29.2252 8.64444 29.3031 8.63233 29.3015C8.6178 29.6147 8.58753 30.0014 8.6848 30.1632C8.74575 30.2685 8.91728 30.3755 8.99356 30.3085C9.08276 30.2367 9.15016 30.116 9.18608 30.0853C9.2547 30.0288 9.19819 29.9723 9.14007 30.026ZM8.8184 32.1647C8.73969 32.1816 8.72597 32.197 8.72597 32.1481C8.72597 32.0565 8.69005 31.6392 8.68319 31.3736C8.67431 31.1076 8.54435 31.0297 8.46928 30.9914C8.39461 31.0786 8.22348 31.1839 8.12177 31.2695C8.04549 31.2146 8.00634 31.0875 7.92158 30.9531C7.8231 31.0451 7.74641 31.129 7.60394 31.242C7.66933 31.3183 7.78274 31.4148 7.79323 31.546C7.8009 31.6792 7.79646 32.293 7.80413 32.4492C7.90947 32.4492 7.8901 32.4597 8.07051 32.4521C8.05316 32.3483 8.06688 31.5492 8.06688 31.4346C8.1363 31.3704 8.14518 31.3599 8.22186 31.303C8.27837 31.3522 8.40833 31.3797 8.40833 31.4652C8.40833 31.5524 8.43335 31.931 8.40389 32.0719C8.36636 32.2414 8.38169 32.3649 8.47533 32.5376C8.54435 32.4597 8.80548 32.2765 8.8636 32.2305C8.91849 32.1816 8.89024 32.1449 8.8184 32.1647ZM7.13455 30.8417C6.98239 30.9442 6.47949 31.1565 6.4024 31.6759C6.335 32.1756 6.80803 32.4735 7.03445 32.5695C7.09136 32.4553 7.20639 32.2688 7.32101 32.1377C7.40658 32.0367 7.31133 32.0105 7.23504 32.0872C7.13011 32.2014 6.81852 32.0933 6.73618 31.9435C6.88592 31.8289 7.27863 31.502 7.44936 31.3611C7.33635 31.2558 7.1628 30.9914 7.13455 30.8417ZM6.67928 31.8652C6.53721 31.6868 6.46012 31.3962 6.88875 31.1335C6.93597 31.2497 7.07965 31.4713 7.14544 31.5096C7.03324 31.6226 6.75556 31.8103 6.67928 31.8652ZM9.70391 29.934C9.61592 29.8363 9.58323 29.7568 9.56386 29.647C9.5457 29.5307 9.45045 29.54 9.45045 29.647C9.45045 29.7491 9.47386 30.1099 9.49242 30.1939C9.51139 30.2811 9.59857 30.252 9.60705 30.1862C9.61592 30.1236 9.6583 30.1067 9.71481 30.1023C9.83831 30.0897 10.0369 30.1664 10.2577 30.1467C10.5188 30.1281 10.7238 29.7233 10.6116 29.4068C10.5059 29.1062 10.1717 29.1594 9.94608 29.088C9.73983 29.0311 9.65346 28.9011 9.88069 28.753C10.1447 28.5819 10.4748 28.8555 10.5059 28.9136C10.5551 29.002 10.5955 29.0004 10.5955 28.8862C10.6015 28.6384 10.5801 28.7792 10.5551 28.5451C10.5458 28.4612 10.4861 28.4535 10.4792 28.5363C10.4748 28.617 10.3747 28.5912 10.3 28.5912C10.225 28.5895 10.0026 28.556 9.81167 28.6614C9.68938 28.7332 9.4113 28.95 9.5679 29.2115C9.6583 29.3641 10.1935 29.488 10.3251 29.5751C10.4595 29.6635 10.4893 29.8867 10.361 29.9909C10.2028 30.1176 9.77131 30.0106 9.70391 29.934ZM10.3251 30.4473C10.2778 30.5406 10.1995 30.6278 10.0591 30.6919C10.1447 30.767 10.2577 30.8631 10.3315 30.9119C10.4159 30.8158 10.4938 30.7287 10.591 30.637C10.4938 30.6173 10.3832 30.5696 10.3251 30.4473ZM9.82055 31.8931C9.70714 32.015 9.64135 31.9589 9.55659 31.8777C9.51583 31.8301 9.50009 31.3918 9.52955 31.3781C9.52955 31.3781 9.74145 31.349 9.7923 31.349C9.83226 31.349 9.82943 31.2267 9.78625 31.2267C9.72369 31.2267 9.5348 31.2283 9.5235 31.1981C9.50009 31.1367 9.56104 30.8417 9.57234 30.7089C9.58041 30.614 9.52955 30.585 9.50534 30.6722C9.4787 30.7593 9.27528 31.1335 9.1546 31.2223C9.05289 31.2969 9.27528 31.4027 9.2547 31.3962C9.26236 31.711 9.21716 32.0335 9.32331 32.1938C9.39233 32.2918 9.60261 32.3649 9.63974 32.2704C9.67404 32.174 9.83347 31.9786 9.86979 31.9463C9.93518 31.8882 9.87746 31.8349 9.82055 31.8931ZM10.7032 31.9145L10.6988 31.2711L10.4938 30.97L10.4159 30.9809L10.0934 31.2816C10.0086 31.3567 10.0837 31.3918 10.1822 31.3094L10.3953 31.4208L10.4001 32.1005C10.4191 32.1833 10.4938 32.2046 10.5971 32.31L10.7315 32.174L10.8703 32.0182C10.7133 31.9891 10.7864 31.9924 10.7032 31.9145ZM11.5762 30.0167C11.6626 29.9021 11.575 29.8335 11.5153 29.9646C11.4685 30.0671 11.2211 29.9557 11.1303 29.8698C11.0116 29.7568 10.9369 29.4638 11.0318 29.3596C11.1286 29.2559 11.2683 29.3031 11.4479 29.2987C11.5658 29.2926 11.5908 29.1824 11.6106 29.1275C11.5545 29.1001 11.4685 29.0509 11.3555 28.9839C11.24 29.0585 11.0629 29.2099 10.985 29.2741C10.8897 29.3548 10.6923 29.6349 10.8001 29.9356C10.9103 30.2459 11.1654 30.342 11.3555 30.3573C11.4136 30.252 11.5181 30.0897 11.5762 30.0167Z" fill="#991A30"/>
<path d="M30.9282 46.8114C30.9282 50.1205 32.5184 52.455 34.5708 53.8652C36.4435 55.1233 38.6496 55.5846 40.9579 55.5846C42.5985 55.5846 44.4467 55.1995 45.0097 54.9929C45.2934 54.8908 45.6014 54.7899 45.9073 54.7382C46.2928 54.2507 46.9595 52.5579 47.1391 51.2236C47.0358 51.0436 46.6524 50.9927 46.4732 51.1215C45.8831 52.6338 44.42 54.7899 41.1121 54.7899C36.9048 54.7899 33.4927 51.8133 33.4927 46.4275C33.4927 41.1165 36.8282 38.6294 40.7524 38.6294C44.4713 38.6294 45.6264 40.6309 46.0114 42.3741C46.1894 42.5283 46.5757 42.5024 46.7028 42.324C46.4974 40.7589 46.3698 39.1428 46.3444 38.5527C46.1132 38.5774 45.9344 38.5269 45.6264 38.4506C44.42 38.116 42.4702 37.8347 41.0854 37.8347C38.4184 37.8347 36.0331 38.5527 34.1607 40.0134C32.2109 41.5277 30.9282 43.9647 30.9282 46.8114ZM63.5551 46.8888C64.7865 46.8888 64.8377 46.9397 64.8377 47.7098V51.3261C64.8377 54.0198 64.8377 54.2765 63.2729 54.5332L62.7866 54.6099C62.6312 54.762 62.6833 55.1733 62.8366 55.2512C63.9663 55.1995 64.8894 55.1733 65.9408 55.1733C66.9409 55.1733 67.8131 55.1995 69.0445 55.2512C69.1983 55.1733 69.2496 54.712 69.0966 54.6099L68.4803 54.5332C66.9918 54.3528 66.9409 54.0198 66.9409 51.3261V42.0912C66.9409 39.3991 66.9918 39.0145 68.4803 38.8599L69.0179 38.8094C69.1733 38.7057 69.122 38.2444 68.9682 38.1677C67.8131 38.2198 66.9409 38.2444 65.9408 38.2444C64.8894 38.2444 64.0164 38.2198 62.8366 38.1677C62.6833 38.2444 62.6312 38.7057 62.7866 38.8094L63.2729 38.8599C64.7865 39.0145 64.8377 39.3991 64.8377 42.0912V45.0419C64.8377 45.8379 64.7865 45.8625 63.5551 45.8625H56.2203C54.9885 45.8625 54.9368 45.8379 54.9368 45.0419V42.0912C54.9368 39.3991 54.9885 39.0145 56.477 38.8599L56.9633 38.8094C57.1163 38.7057 57.0667 38.2444 56.9117 38.1677C55.8086 38.2198 54.9368 38.2444 53.9375 38.2444C52.834 38.2444 51.961 38.1939 50.7054 38.1677C50.5504 38.2444 50.4996 38.7057 50.6533 38.8094L51.3193 38.8599C52.654 38.9624 52.834 39.3991 52.834 42.0912V51.3261C52.834 54.0198 52.7824 54.2765 51.3459 54.5332L50.9096 54.6099C50.7563 54.762 50.8083 55.1733 50.9613 55.2512C51.961 55.2254 52.834 55.1733 53.9375 55.1733C54.9368 55.1733 55.8086 55.1995 57.195 55.2512C57.348 55.1733 57.3996 54.712 57.2446 54.6099L56.5012 54.5332C55.0652 54.379 54.9368 54.0198 54.9368 51.3261V47.7098C54.9368 46.9397 54.9885 46.8888 56.2203 46.8888H63.5551ZM75.405 51.2757C75.405 53.994 75.3537 54.3528 73.8402 54.5332L73.1993 54.6099C73.0459 54.762 73.0975 55.1733 73.2505 55.2512C74.5336 55.1995 75.405 55.1733 76.4826 55.1733C77.5078 55.1733 78.3812 55.1995 79.6622 55.2512C79.8172 55.1733 79.8685 54.712 79.7143 54.6099L79.0726 54.5332C77.559 54.3528 77.5078 53.994 77.5078 51.2757V42.1436C77.5078 39.4237 77.559 38.9882 79.0726 38.8599L79.7143 38.8094C79.8685 38.7057 79.8172 38.2444 79.6622 38.1677C78.3812 38.2198 77.5078 38.2444 76.4826 38.2444C75.405 38.2444 74.5336 38.2198 73.2505 38.1677C73.0975 38.2444 73.0459 38.7057 73.1993 38.8094L73.8402 38.8599C75.3537 38.9882 75.405 39.4237 75.405 42.1436V51.2757ZM82.9193 46.8114C82.9193 50.1205 84.512 52.455 86.5619 53.8652C88.4355 55.1233 90.642 55.5846 92.9506 55.5846C94.5913 55.5846 96.439 55.1995 97.0024 54.9929C97.2853 54.8908 97.5921 54.7899 97.8992 54.7382C98.2847 54.2507 98.9519 52.5579 99.1311 51.2236C99.0285 51.0436 98.6435 50.9927 98.4647 51.1215C97.875 52.6338 96.4128 54.7899 93.1032 54.7899C88.8968 54.7899 85.4867 51.8133 85.4867 46.4275C85.4867 41.1165 88.8205 38.6294 92.7444 38.6294C96.4632 38.6294 97.6183 40.6309 98.0034 42.3741C98.1818 42.5283 98.5672 42.5024 98.6956 42.324C98.4905 40.7589 98.3622 39.1428 98.3363 38.5527C98.1055 38.5774 97.9255 38.5269 97.6183 38.4506C96.4128 38.116 94.4629 37.8347 93.079 37.8347C90.4111 37.8347 88.0242 38.5527 86.1526 40.0134C84.2032 41.5277 82.9193 43.9647 82.9193 46.8114ZM113.367 52.7101C113.571 53.326 113.7 53.7877 113.7 54.0706C113.7 54.3269 113.34 54.4811 112.803 54.5332L112.058 54.6099C111.878 54.7382 111.904 55.1475 112.109 55.2512C112.853 55.2254 113.828 55.1733 115.059 55.1733C116.213 55.1733 117.111 55.1995 118.163 55.2512C118.291 55.1475 118.343 54.7382 118.163 54.6099L117.471 54.5332C116.368 54.4032 116.034 54.0198 115.29 51.8133L111.776 41.5015C111.391 40.3738 110.981 39.1945 110.648 38.064C110.597 37.8868 110.416 37.8347 110.263 37.8347C109.98 38.1677 109.545 38.6294 108.929 38.8094C109.006 39.2191 108.852 39.705 108.492 40.6309L105.877 47.5552C104.8 50.4293 104.081 52.0962 103.62 53.2755C103.261 54.1986 102.697 54.4811 102.081 54.5332L101.235 54.6099C101.08 54.7382 101.133 55.1475 101.285 55.2512C101.979 55.2254 102.902 55.1733 103.748 55.1733C104.954 55.1995 105.749 55.1995 106.416 55.2512C106.647 55.1475 106.647 54.7382 106.466 54.6099L105.62 54.5332C105.004 54.4811 104.876 54.3269 104.876 54.0198C104.876 53.7373 105.056 53.0447 105.441 51.89L106.338 49.1979C106.519 48.6583 106.673 48.582 107.313 48.582H111.186C111.956 48.582 112.058 48.6583 112.237 49.2221L113.367 52.7101ZM108.775 42.4762C109.058 41.7077 109.315 41.0922 109.391 40.9635H109.443C109.596 41.271 109.826 41.9644 110.032 42.5799L111.417 46.7605C111.648 47.4531 111.597 47.5552 110.853 47.5552H107.698C106.98 47.5552 106.954 47.5294 107.16 46.9397L108.775 42.4762ZM135.092 51.1215C135.092 49.8122 135.116 49.0938 136.195 48.967L136.605 48.9154C136.785 48.7604 136.759 48.3753 136.58 48.2736C135.734 48.3253 134.86 48.3499 133.861 48.3499C132.348 48.3499 130.937 48.3253 130.193 48.2736C130.013 48.3499 129.987 48.8124 130.193 48.9154L131.321 49.0433C132.912 49.2221 132.99 49.3783 132.99 51.5307V52.5579C132.99 53.3785 132.861 53.8398 132.733 54.0198C132.448 54.4553 131.501 54.7899 129.911 54.7899C124.754 54.7899 122.215 50.9152 122.215 45.9908C122.215 42.1436 124.396 38.6048 129.371 38.6048C131.987 38.6048 133.912 39.4754 134.631 42.2453C134.783 42.3999 135.247 42.3741 135.324 42.1695C135.092 40.6309 134.938 39.2954 134.938 38.4506C134.631 38.5011 133.836 38.3207 133.347 38.2198C132.912 38.116 131.553 37.8347 130.09 37.8347C126.216 37.8347 123.677 39.0387 121.959 40.8351C120.369 42.5283 119.651 44.7348 119.651 46.9139C119.651 49.1717 120.472 51.1982 122.01 52.7363C123.986 54.7382 126.781 55.5846 129.833 55.5846C131.219 55.5846 133.066 55.2758 134.426 54.9166C134.912 54.7899 135.373 54.6861 135.682 54.6861C135.785 54.6099 135.785 54.4553 135.706 54.379C135.247 54.1986 135.092 53.5827 135.092 52.5579V51.1215ZM149.326 55.5846C154.279 55.5846 158.228 51.8133 158.228 46.6322C158.228 42.1174 155.251 37.8347 149.326 37.8347C144.043 37.8347 140.195 41.7582 140.195 46.8888C140.195 51.5049 143.633 55.5846 149.326 55.5846ZM149.659 54.7899C144.608 54.7899 142.762 49.8638 142.762 46.0671C142.762 40.4505 146.223 38.6294 148.892 38.6294C153.791 38.6294 155.664 43.1946 155.664 47.4269C155.664 52.4796 152.739 54.7899 149.659 54.7899Z" fill="#991A30"/>
<path d="M83.7555 31.5935L83.4544 31.5475C82.8998 31.4817 82.8736 31.4223 82.8736 30.2733V26.4673C82.8736 25.3121 82.9103 25.2266 83.4483 25.1822L83.7385 25.158L83.7555 25.1471C83.8088 25.1107 83.8362 25.0357 83.8306 24.9424C83.8269 24.9057 83.8132 24.7806 83.7232 24.7378L83.705 24.7285L83.6853 24.7301C83.1791 24.7483 82.8034 24.7608 82.3634 24.7608C81.9053 24.7608 81.5369 24.7499 81.0206 24.7301L81.0005 24.7285L80.9815 24.7378C80.8923 24.7806 80.8782 24.9057 80.8753 24.9436C80.8693 25.0357 80.8967 25.1107 80.9504 25.1471L80.9678 25.158L81.2551 25.1822C81.7952 25.2266 81.8315 25.3121 81.8315 26.4673V30.2733C81.8315 31.4223 81.8057 31.4817 81.2535 31.5475L80.9581 31.5842L80.9379 31.6028C80.877 31.6637 80.8673 31.7646 80.8794 31.8377C80.8923 31.9176 80.9278 31.9769 80.9795 32.0015L80.9988 32.0104H81.0206C81.5635 31.989 81.9203 31.9785 82.3634 31.9785C82.7868 31.9785 83.1549 31.989 83.6853 32.0104H83.705L83.7232 32.0015C83.8132 31.9587 83.8269 31.8332 83.8306 31.7949C83.8362 31.7033 83.8088 31.6286 83.7555 31.5935Z" fill="#991A30"/>
<path d="M78.7952 24.741L78.773 24.7269L78.7472 24.7285C78.3965 24.7483 78.1176 24.7608 77.6502 24.7608C77.2724 24.7608 76.9213 24.7515 76.3934 24.7285H76.3764L76.3603 24.733C76.2985 24.7576 76.2557 24.8141 76.2404 24.8952C76.223 24.9897 76.2525 25.0877 76.3139 25.1394L76.3344 25.158L76.5391 25.1806C76.9068 25.2266 77.0932 25.2815 77.1429 25.3577C77.2708 25.5595 77.3435 26.3494 77.3435 27.5247V29.812C77.3435 29.9157 77.3435 30.0364 77.3366 30.1175C76.9661 29.7337 76.5794 29.2998 76.0963 28.7606L74.6102 27.092C73.5524 25.9067 72.947 25.1289 72.8109 24.7806L72.7871 24.7192L72.7217 24.7301C72.5934 24.7483 72.4198 24.7608 72.2427 24.7608C72.0546 24.7608 71.4871 24.7608 71.0407 24.7285L71.0197 24.7269L70.9987 24.7378C70.9406 24.7669 70.9019 24.8246 70.8898 24.8997C70.8752 24.988 70.9007 25.0813 70.9556 25.135L70.9753 25.1563L71.1852 25.1806C71.4694 25.2173 71.6825 25.2968 71.7963 25.4114C71.9977 25.6298 72.0114 25.8271 72.0114 26.125V29.3107C72.0114 29.8273 72.0126 31.0369 71.8798 31.3808C71.8544 31.4361 71.7636 31.5095 71.4746 31.5491L71.157 31.583L71.1364 31.604C71.09 31.65 71.0662 31.7263 71.0722 31.8074C71.0783 31.8881 71.115 31.9555 71.1691 31.9951L71.1933 32.012L71.2211 32.0104C71.5933 31.989 71.8798 31.9785 72.329 31.9785C72.6907 31.9785 73.0519 31.9878 73.5758 32.0104L73.604 32.012L73.6262 31.9951C73.6755 31.9587 73.7102 31.9022 73.7211 31.8348C73.7324 31.7569 73.713 31.6758 73.667 31.6133L73.6444 31.583L73.2755 31.5491C73.0188 31.5261 72.8388 31.4663 72.7948 31.3856C72.6798 31.1822 72.6132 30.3907 72.6132 29.2142V26.883C72.6132 26.6921 72.6168 26.4887 72.6354 26.3434C72.8053 26.5343 73.0894 26.8676 73.3429 27.1699C73.5177 27.3762 73.6791 27.5675 73.7832 27.6866L76.2634 30.5086C77.0884 31.445 77.4827 31.9095 77.6264 32.1145L77.6514 32.1497H77.6938C77.833 32.1497 77.9392 32.0839 77.9739 31.9753L77.9799 31.9587L77.9787 31.9402C77.9634 31.8167 77.9452 31.3917 77.9452 30.0791V27.381C77.944 26.8325 77.9412 25.6944 78.0978 25.361C78.1115 25.3319 78.2399 25.2419 78.6338 25.1806L78.811 25.1563L78.8312 25.135C78.8832 25.0845 78.9082 25.0006 78.8986 24.9178C78.8905 24.8415 78.8517 24.7774 78.7952 24.741Z" fill="#991A30"/>
<path d="M69.2084 24.7412L69.187 24.7271L69.1604 24.7287C68.789 24.7484 68.5017 24.761 68.0424 24.761C67.6331 24.761 67.2356 24.7501 66.8287 24.7287L66.8017 24.7271L66.7787 24.7424C66.7298 24.7759 66.6955 24.8372 66.685 24.9091C66.6733 24.9898 66.6939 25.0661 66.7411 25.1214L66.7629 25.1472L67.0632 25.1702C67.309 25.19 67.4765 25.2558 67.533 25.3534C67.6581 25.5738 67.7271 26.3451 67.7271 27.5249V28.7547C67.7271 30.0135 67.3704 31.5157 65.6712 31.5157C64.2456 31.5157 63.5825 30.6355 63.5825 28.7442V26.4351C63.5825 25.2986 63.62 25.2174 64.1488 25.1702L64.4252 25.1488L64.4442 25.1351C64.4979 25.1 64.5233 25.0281 64.5173 24.9381C64.5128 24.8631 64.4834 24.7731 64.4131 24.7363L64.3946 24.7287H64.3736C63.8666 24.7484 63.5082 24.761 63.0631 24.761C62.6227 24.761 62.2462 24.7484 61.7404 24.7287H61.7199L61.7017 24.7363C61.6315 24.7714 61.6012 24.8631 61.5968 24.9365C61.5899 25.0281 61.6169 25.1 61.6702 25.1351L61.6872 25.1488L61.9765 25.1702C62.5061 25.2174 62.542 25.2986 62.542 26.4351V28.9581C62.542 30.2504 62.8076 31.0484 63.4037 31.5432C63.8751 31.9448 64.5665 32.1498 65.4565 32.1498C66.2984 32.1498 67.1044 31.8394 67.558 31.343C68.0755 30.7884 68.3273 29.934 68.3273 28.7333V27.5249C68.3273 26.9836 68.3273 25.7143 68.4702 25.3797C68.5198 25.2711 68.7035 25.1884 68.9364 25.1702L69.2274 25.1472L69.2487 25.1198C69.2976 25.0616 69.3198 24.9745 69.3069 24.8966C69.296 24.8296 69.2621 24.7743 69.2084 24.7412Z" fill="#991A30"/>
<path d="M38.0066 24.4502C37.98 24.4502 37.9408 24.4534 37.9061 24.4688L37.8795 24.4797L37.8649 24.5027C37.7273 24.7424 37.6696 24.761 37.1037 24.761H32.6854C32.2064 24.761 31.9916 24.7363 31.9468 24.4962L31.942 24.472L31.923 24.4534C31.8932 24.4244 31.8451 24.4094 31.7765 24.4094C31.7511 24.4094 31.6631 24.4122 31.6167 24.4429L31.5884 24.4627L31.5824 24.4978C31.5069 24.9228 31.3495 25.598 31.1784 26.0763L31.1675 26.1098L31.1828 26.1405C31.247 26.2688 31.4661 26.3314 31.584 26.2442L31.6006 26.2321L31.6106 26.2107C31.7184 25.9645 31.8201 25.7324 32.0704 25.5004C32.3065 25.2848 32.84 25.2574 33.3296 25.2574H33.9177C34.1562 25.2574 34.1562 25.2574 34.1562 25.5157V30.2948C34.1562 31.4532 34.0904 31.502 33.5693 31.5476L33.1843 31.5811L33.1484 31.592C33.0842 31.63 33.0483 31.7111 33.0527 31.8043C33.056 31.8762 33.0842 31.9678 33.1544 32.0017L33.1734 32.0106H33.1936C33.8474 31.9908 34.2434 31.9787 34.6773 31.9787C35.093 31.9787 35.4385 31.9892 36.0737 32.0106H36.0943L36.1133 32.0017C36.1835 31.9678 36.2134 31.8717 36.2178 31.7938C36.2239 31.7006 36.196 31.6271 36.1432 31.5936L35.7626 31.5476C35.2294 31.502 35.1967 31.4314 35.1967 30.2948V25.5032C35.1967 25.3946 35.1967 25.2909 35.2136 25.274C35.2326 25.2574 35.3476 25.2574 35.4251 25.2574H36.1835C36.7558 25.2574 37.1453 25.3381 37.3738 25.5064C37.4759 25.5827 37.5635 25.8531 37.6091 26.2321L37.6123 26.2551L37.6276 26.2733C37.6664 26.3205 37.739 26.3496 37.8218 26.3496C37.9219 26.3496 38.0078 26.3068 38.0421 26.2366L38.0514 26.2152L38.0502 26.1926C38.0187 25.8838 38.0934 25.0233 38.208 24.5959L38.2157 24.5668L38.2024 24.539C38.1612 24.4566 38.0421 24.4502 38.0066 24.4502Z" fill="#991A30"/>
<path d="M47.857 31.5935L47.5643 31.5475C47.0227 31.4817 46.9969 31.424 46.9969 30.2947V26.4459C46.9969 25.3093 47.0279 25.2359 47.5627 25.1822L47.7863 25.1592L47.8239 25.1471C47.8775 25.1107 47.905 25.0373 47.8989 24.9436C47.8977 24.9057 47.882 24.7806 47.7944 24.7378L47.7754 24.7285L47.7553 24.7301C47.2374 24.7515 46.8851 24.7608 46.496 24.7608C46.0327 24.7608 45.6609 24.7483 45.2085 24.7301L45.1863 24.7285L45.1673 24.7378C45.0797 24.7806 45.064 24.9057 45.0624 24.9424C45.0563 25.0357 45.083 25.1107 45.1366 25.1458L45.3768 25.1822C45.9233 25.2359 45.9544 25.3093 45.9544 26.4459V27.6757C45.9544 27.9356 45.9544 27.9356 45.5023 27.9356H42.4466C41.9942 27.9356 41.9942 27.9356 41.9942 27.6757V26.4459C41.9942 25.3093 42.0256 25.2359 42.5624 25.1822L42.7646 25.1592L42.8018 25.1458C42.8555 25.1107 42.8813 25.0357 42.8768 24.9436C42.8736 24.9057 42.8583 24.7806 42.7703 24.7378L42.7517 24.7285L42.7315 24.7301C42.2452 24.7515 41.8868 24.7608 41.4953 24.7608C41.2148 24.7608 40.973 24.7527 40.7071 24.7439C40.5359 24.739 40.3547 24.733 40.1501 24.7285H40.1311L40.1117 24.7378C40.0246 24.779 40.0088 24.9041 40.0072 24.9424C40.0011 25.0357 40.0278 25.1087 40.0802 25.1458L40.0996 25.158L40.3979 25.1822C40.8693 25.2173 40.9537 25.3154 40.9537 26.4459V30.2947C40.9537 31.407 40.9327 31.4542 40.4015 31.5491L40.1949 31.5858L40.1759 31.6028C40.115 31.6637 40.1057 31.7646 40.117 31.8377C40.1295 31.9156 40.1666 31.9769 40.2187 32.0015L40.2356 32.0104H40.2578C40.4027 32.006 40.5444 32.0015 40.6844 31.9967C40.9371 31.9878 41.1982 31.9785 41.4953 31.9785C41.8957 31.9785 42.2371 31.9878 42.8498 32.0104H42.8704L42.8894 32.0015C42.96 31.9676 42.9899 31.8716 42.9947 31.7937C42.9987 31.702 42.9721 31.627 42.9188 31.5935L42.5717 31.5475C42.0603 31.4926 41.9942 31.4421 41.9942 30.2947V28.7864C41.9942 28.5269 41.9942 28.5269 42.4466 28.5269H45.5023C45.9544 28.5269 45.9544 28.5269 45.9544 28.7864V30.2947C45.9544 31.43 45.9435 31.4542 45.3728 31.5475L45.1427 31.5842L45.1237 31.604C45.0624 31.6649 45.0547 31.7658 45.0656 31.8377C45.0797 31.9176 45.1157 31.9769 45.1673 32.0015L45.1863 32.0104L45.2085 32.0088C45.7195 31.9878 46.092 31.9785 46.496 31.9785C46.9182 31.9785 47.2895 31.9906 47.7863 32.0088L47.8065 32.0104L47.8255 32.0015C47.9151 31.9587 47.9288 31.8332 47.932 31.7949C47.9381 31.7033 47.9102 31.6286 47.857 31.5935Z" fill="#991A30"/>
<path d="M100.206 30.2614C100.152 30.2614 100.106 30.2751 100.069 30.3009L100.042 30.3316C99.736 30.9443 99.4591 31.2542 99.3203 31.3305C99.0911 31.4468 98.767 31.4819 97.988 31.4819C97.0968 31.4819 96.8696 31.3765 96.7566 31.2635C96.6036 31.1029 96.5746 30.755 96.5746 30.2077V28.7014C96.5746 28.4952 96.5746 28.4952 96.845 28.4952H97.4653C97.8383 28.4952 98.1163 28.5041 98.2677 28.5452C98.4158 28.582 98.4925 28.6784 98.5397 28.8907L98.6358 29.3064L98.6511 29.3415C98.6907 29.3888 98.767 29.4178 98.8525 29.4178C98.9494 29.4178 99.0301 29.3811 99.0652 29.3185L99.0757 29.3V29.279C99.0757 29.1749 99.0664 29.0356 99.0576 28.883C99.045 28.6877 99.0329 28.4657 99.0329 28.2518C99.0329 28.0274 99.045 27.7998 99.0576 27.598C99.0664 27.4345 99.0757 27.288 99.0757 27.1718V27.152L99.0652 27.1322C99.0301 27.0713 98.9494 27.0329 98.8525 27.0329C98.767 27.0329 98.6907 27.062 98.6511 27.1092L98.549 27.5859C98.5014 27.8288 98.44 27.8656 98.3472 27.8958C98.2326 27.9342 97.9117 27.9556 97.4653 27.9556H96.845C96.5746 27.9556 96.5746 27.9556 96.5746 27.7388V25.6009C96.5746 25.2558 96.5746 25.2558 96.8147 25.2558H97.5812C98.0352 25.2558 98.3823 25.2663 98.6007 25.3184C99.0882 25.4407 99.1847 25.7478 99.3324 26.2152L99.3542 26.2794L99.3695 26.3056C99.4047 26.3512 99.4656 26.3742 99.5435 26.3742C99.6165 26.3742 99.7191 26.3496 99.7663 26.2794L99.7832 26.2535L99.7699 26.0978C99.713 25.4742 99.6626 24.9459 99.6044 24.7836L99.5802 24.7134L99.5084 24.7319C99.3893 24.761 98.7262 24.761 98.0857 24.761H96.0753C95.664 24.761 95.3113 24.7517 94.8193 24.7287H94.7975L94.7777 24.738C94.6909 24.7808 94.6756 24.9059 94.6724 24.9426C94.6663 25.0375 94.6937 25.1109 94.7474 25.146L94.9553 25.1808C95.5006 25.2465 95.5341 25.3168 95.5341 26.4461V30.2933C95.5341 31.4512 95.4671 31.5033 94.946 31.5477L94.5642 31.5832L94.544 31.603C94.4831 31.6639 94.4738 31.7648 94.4831 31.8362C94.4968 31.9158 94.5347 31.9755 94.5864 32.0017L94.6021 32.0122L94.6251 32.0106C95.2439 31.9892 95.6136 31.9787 96.0753 31.9787H97.0375C97.9694 31.9787 98.9078 31.9892 99.9011 32.0106L99.9528 32.0122L99.9758 31.965C100.119 31.6639 100.387 30.8341 100.463 30.4599L100.469 30.4325L100.457 30.4095C100.411 30.3054 100.298 30.2614 100.206 30.2614Z" fill="#991A30"/>
<path d="M55.6716 30.2614C55.6191 30.2614 55.5715 30.2751 55.534 30.3009L55.5073 30.3316C55.201 30.9443 54.9253 31.2542 54.7861 31.3305C54.556 31.4468 54.2319 31.4819 53.4546 31.4819C52.5642 31.4819 52.3346 31.3765 52.2216 31.2635C52.0702 31.1029 52.0403 30.755 52.0403 30.2077V28.7014C52.0403 28.4952 52.0403 28.4952 52.3108 28.4952H52.9303C53.304 28.4952 53.5825 28.5041 53.7335 28.5452C53.8816 28.5836 53.9587 28.6784 54.0051 28.8907L54.1008 29.3064L54.1177 29.3415C54.1577 29.3888 54.2319 29.4178 54.3187 29.4178C54.4156 29.4178 54.4951 29.3811 54.531 29.3185L54.5399 29.3V29.279C54.5399 29.1749 54.5322 29.0356 54.5233 28.883C54.5124 28.6877 54.4979 28.4657 54.4979 28.2518C54.4979 28.0274 54.5124 27.7998 54.5233 27.598C54.5322 27.4345 54.5399 27.288 54.5399 27.1718V27.152L54.531 27.1322C54.4951 27.0713 54.4156 27.0329 54.3187 27.0329C54.2319 27.0329 54.1577 27.062 54.1177 27.1092L54.0144 27.5859C53.9664 27.8288 53.9066 27.8656 53.8126 27.8958C53.6992 27.9342 53.3783 27.9556 52.9303 27.9556H52.3108C52.0403 27.9556 52.0403 27.9556 52.0403 27.7388V25.6009C52.0403 25.2558 52.0403 25.2558 52.2781 25.2558H53.0477C53.5018 25.2558 53.8485 25.2663 54.0648 25.3184C54.5528 25.4407 54.6501 25.7478 54.7982 26.2152L54.8188 26.2794L54.8341 26.3056C54.8708 26.3512 54.9314 26.3742 55.0085 26.3742C55.0819 26.3742 55.1849 26.3496 55.2321 26.2794L55.2478 26.2535L55.2337 26.0961C55.1788 25.4742 55.1283 24.9459 55.071 24.7836L55.046 24.7134L54.9742 24.7319C54.8551 24.761 54.1916 24.761 53.5498 24.761H51.5407C51.1298 24.761 50.7775 24.7517 50.2846 24.7287H50.2629L50.2443 24.738C50.1563 24.7808 50.1406 24.9059 50.1389 24.9426C50.1329 25.0375 50.1595 25.1109 50.2132 25.146L50.4207 25.1808C50.9671 25.2465 50.9998 25.3168 50.9998 26.4461V30.2933C50.9998 31.4512 50.9324 31.5033 50.4114 31.5477L50.0296 31.5832L50.009 31.603C49.9472 31.6639 49.9388 31.7648 49.9501 31.8379C49.9622 31.9158 49.9997 31.9755 50.0518 32.0017L50.0687 32.0122L50.0909 32.0106C50.7076 31.9892 51.0794 31.9787 51.5407 31.9787H52.5033C53.4364 31.9787 54.3712 31.9892 55.3653 32.0106L55.4177 32.0122L55.4415 31.965C55.5852 31.6651 55.8532 30.8373 55.9283 30.4599L55.9343 30.4325L55.9235 30.4095C55.8762 30.3054 55.764 30.2614 55.6716 30.2614Z" fill="#991A30"/>
<path d="M93.0925 24.7392L93.0695 24.7271L93.0465 24.7287C92.6889 24.7501 92.3591 24.761 92.0136 24.761C91.5951 24.761 91.1915 24.7484 90.9089 24.7287L90.8831 24.7271L90.8617 24.7392C90.8036 24.7743 90.7608 24.8445 90.7544 24.9289C90.7455 25.0128 90.7729 25.0939 90.8278 25.1395L90.8464 25.1581L91.0631 25.1807C91.4377 25.2235 91.4728 25.3018 91.4728 25.3018C91.4728 25.372 91.4607 25.4806 91.3812 25.6897C91.1975 26.1542 90.6878 27.3796 90.3891 28.0822C90.31 28.2627 90.2107 28.4996 90.1005 28.7607C89.8959 29.2406 89.6517 29.8258 89.4406 30.2855C88.9333 29.1244 88.4687 27.9587 87.9981 26.7669C87.6837 26 87.5045 25.4422 87.473 25.303C87.488 25.2679 87.5796 25.2235 87.9009 25.1807L88.0841 25.1565L88.1023 25.1395C88.1572 25.0939 88.185 25.016 88.1753 24.9289C88.168 24.8445 88.1301 24.7743 88.0688 24.7392L88.047 24.7271L88.0228 24.7287C87.5489 24.7501 87.1732 24.761 86.7344 24.761C86.2884 24.761 85.9478 24.7501 85.6285 24.7287L85.6023 24.7271L85.5793 24.7412C85.5172 24.7807 85.4772 24.8522 85.4711 24.9333C85.4647 25.016 85.4921 25.0939 85.5478 25.1395L85.5672 25.1581L85.786 25.1807C86.2001 25.2299 86.3417 25.4209 86.5835 26.0073L88.4659 30.6447C88.6891 31.1993 88.8542 31.676 88.9531 32.0566L88.9623 32.0961L89.0007 32.1115C89.062 32.1377 89.1258 32.1498 89.1932 32.1498C89.2542 32.1498 89.3123 32.1345 89.3551 32.1038L89.3797 32.0884L89.3886 32.061C89.5722 31.4867 90.0852 30.2262 90.4981 29.2801L91.0724 27.9648C91.5693 26.842 91.9829 25.9952 92.2659 25.5157C92.4015 25.2969 92.5452 25.1993 92.7563 25.1807L93.1074 25.1581L93.1304 25.1351C93.1885 25.077 93.1978 24.9761 93.1885 24.9075C93.1796 24.8296 93.1445 24.7698 93.0925 24.7392Z" fill="#991A30"/>
<path d="M146.38 24.5891C144.164 24.5891 142.493 26.2471 142.493 28.444C142.493 30.2868 143.828 32.1495 146.38 32.1495C148.54 32.1495 150.172 30.51 150.172 28.337C150.172 26.5329 148.985 24.5891 146.38 24.5891ZM146.52 31.6543C144.314 31.6543 143.724 29.4203 143.724 28.1021C143.724 25.8758 145.058 25.086 146.199 25.086C148.219 25.086 148.937 27.0156 148.937 28.6688C148.937 30.8737 147.636 31.6543 146.52 31.6543Z" fill="#991A30"/>
<path d="M157.353 26.2164C157.332 25.8297 157.32 25.3317 157.32 24.8106V24.7085L157.221 24.7299C157.091 24.7606 156.432 24.7606 155.797 24.7606H153.829C153.427 24.7606 153.069 24.7513 152.594 24.7283L152.575 24.7267L152.553 24.7359C152.466 24.7803 152.452 24.9055 152.449 24.9434C152.443 25.037 152.471 25.1105 152.524 25.1468L152.73 25.1803C153.271 25.2461 153.299 25.3042 153.299 26.4472V30.2944C153.299 31.4237 153.271 31.4831 152.73 31.5488L152.434 31.5827L152.414 31.6037C152.354 31.6635 152.344 31.7628 152.357 31.8346C152.369 31.9153 152.405 31.975 152.457 32.0013L152.475 32.0102H152.498C152.996 31.9904 153.357 31.9795 153.829 31.9795C154.261 31.9795 154.631 31.9904 155.248 32.0102H155.27L155.288 32.0013C155.358 31.9662 155.389 31.8713 155.394 31.7946C155.398 31.7002 155.371 31.6283 155.317 31.5932L154.915 31.5472C154.371 31.5016 154.339 31.431 154.339 30.2944V28.8079C154.339 28.6013 154.339 28.6013 154.609 28.6013H155.337C155.713 28.6013 155.991 28.609 156.134 28.6501C156.284 28.6978 156.365 28.797 156.422 28.9988L156.535 29.442L156.554 29.4586C156.66 29.5486 156.888 29.5441 156.955 29.442L156.969 29.4202V29.396C156.969 29.2846 156.961 29.1425 156.952 28.9835C156.938 28.7894 156.926 28.5694 156.926 28.3587C156.926 28.1432 156.938 27.9123 156.95 27.7105C156.96 27.5455 156.969 27.3945 156.969 27.2783V27.2536L156.955 27.2339C156.904 27.1576 156.794 27.1483 156.752 27.1483C156.663 27.1483 156.585 27.179 156.544 27.2278L156.432 27.6891C156.373 27.9474 156.301 27.9733 156.22 28.0023C156.107 28.0407 155.777 28.0621 155.337 28.0621H154.609C154.339 28.0621 154.339 28.0621 154.339 27.8558V25.6021C154.339 25.2554 154.339 25.2554 154.579 25.2554H155.23C155.671 25.2554 156.022 25.2554 156.246 25.3163C156.704 25.437 156.841 25.7442 156.932 26.2684L156.938 26.2959L156.961 26.3157C157.002 26.3508 157.06 26.3693 157.121 26.3693C157.204 26.3693 157.305 26.3354 157.345 26.2592L157.355 26.2378L157.353 26.2164Z" fill="#991A30"/>
<path d="M137.063 24.7412L137.041 24.7271L137.014 24.7287C136.253 24.7731 135.807 24.7731 135.003 24.7287L134.982 24.7271L134.961 24.7379C134.903 24.7682 134.861 24.828 134.847 24.903C134.835 24.9882 134.861 25.0786 134.919 25.1351L134.939 25.1565L135.159 25.1807C135.366 25.2069 135.495 25.2574 135.534 25.2865C135.498 25.4374 135.127 26.1328 134.899 26.553L134.851 26.6446C134.594 27.141 134.296 27.6774 133.922 28.3224C133.639 27.8134 133.364 27.254 133.098 26.712C132.993 26.4981 132.889 26.2854 132.785 26.0775C132.708 25.9237 132.465 25.3765 132.463 25.2925C132.463 25.2711 132.511 25.2279 132.841 25.1807L133.008 25.1549L133.028 25.1351C133.084 25.0786 133.109 24.9728 133.087 24.8812C133.069 24.8066 133.023 24.7545 132.959 24.7331L132.944 24.7271L132.928 24.7287C132.667 24.7501 132.284 24.761 131.792 24.761C131.296 24.761 130.905 24.7517 130.559 24.7287L130.533 24.7271L130.511 24.7392C130.459 24.7698 130.424 24.8263 130.411 24.8982C130.398 24.9837 130.419 25.0725 130.469 25.1307L130.488 25.1549L130.817 25.213C131.1 25.2586 131.242 25.2848 131.602 25.9798L132.862 28.4398C133.165 29.0218 133.197 29.1409 133.197 29.7277V30.2718C133.197 31.4314 133.17 31.4911 132.629 31.5492L132.267 31.5831L132.247 31.6041C132.186 31.6651 132.177 31.7648 132.189 31.8378C132.203 31.9157 132.238 31.9754 132.29 32.0017L132.308 32.0106H132.329C132.905 31.9892 133.279 31.9787 133.726 31.9787C134.16 31.9787 134.543 31.9908 135.177 32.0106H135.199L135.217 32.0017C135.268 31.9754 135.306 31.9157 135.318 31.8362C135.331 31.7631 135.321 31.6651 135.258 31.6041L135.239 31.5811L134.802 31.5476C134.307 31.5109 134.236 31.4302 134.236 30.2718V29.7173C134.236 28.9153 134.257 28.8354 134.728 28.0257L135.4 26.8617C135.462 26.756 135.521 26.6539 135.576 26.5558C135.997 25.8208 136.3 25.2909 136.754 25.213L137.077 25.1549L137.094 25.1412C137.148 25.0923 137.176 25.016 137.17 24.9333C137.164 24.8522 137.124 24.7807 137.063 24.7412Z" fill="#991A30"/>
<path d="M113.624 27.9689L112.769 27.4341C112.445 27.2327 111.9 26.8033 111.9 26.1902C111.9 25.7765 112.054 25.086 113.089 25.086C114.031 25.086 114.32 25.6986 114.463 26.2318L114.48 26.2641C114.513 26.3036 114.572 26.3279 114.642 26.3279C114.722 26.3279 114.831 26.2944 114.877 26.2241L114.893 26.2027V26.1781C114.893 25.7426 114.801 25.1303 114.694 24.8458L114.675 24.7925H114.617C114.544 24.7925 114.401 24.774 114.265 24.7316C114.009 24.6626 113.609 24.5891 113.249 24.5891C111.898 24.5891 110.987 25.3608 110.987 26.5083C110.987 27.4846 111.733 28.1235 112.179 28.4165L113.194 29.0796C113.931 29.5547 114.034 30.0471 114.034 30.5084C114.034 31.0783 113.646 31.6526 112.781 31.6526C111.696 31.6526 111.226 30.82 111.021 30.1202L111.009 30.0971C110.978 30.0503 110.92 30.0225 110.847 30.0225C110.777 30.0225 110.672 30.0515 110.617 30.1278L110.602 30.1508L110.604 30.1799C110.623 30.6626 110.761 31.4529 110.902 31.7108L110.911 31.7322L110.932 31.7431C111.142 31.8649 111.726 32.1495 112.64 32.1495C114.052 32.1495 114.999 31.3213 114.999 30.0895C114.999 29.2354 114.551 28.542 113.624 27.9689Z" fill="#991A30"/>
<path d="M109.176 31.7339L109.153 31.7295C108.897 31.7109 108.639 31.6072 108.46 31.4482C107.725 30.8323 107.14 29.931 106.331 28.6262C106.274 28.5345 106.266 28.495 106.267 28.4748C106.622 28.3283 107.626 27.8044 107.626 26.6279C107.626 25.7307 107.119 25.2786 106.694 25.0583C106.159 24.7681 105.472 24.7285 104.873 24.7285C103.892 24.7285 103.134 24.7543 102.48 24.8141L102.451 24.8217C102.388 24.8536 102.349 24.9227 102.343 25.0066C102.333 25.0982 102.369 25.1866 102.428 25.231L102.445 25.2431L102.807 25.2875C103.157 25.3307 103.207 25.4054 103.207 26.4568V30.2931C103.207 31.424 103.18 31.4833 102.639 31.5491L102.339 31.5842L102.318 31.6088C102.257 31.679 102.252 31.7799 102.266 31.8518C102.281 31.9232 102.316 31.9769 102.365 32.0027L102.384 32.012L102.407 32.0104C102.882 31.9906 103.27 31.9785 103.737 31.9785C104.18 31.9785 104.552 31.9906 105.007 32.0104L105.028 32.012L105.047 32.0027C105.126 31.9632 105.145 31.8591 105.15 31.8179C105.161 31.723 105.135 31.6407 105.084 31.5979L105.065 31.583L104.818 31.5491C104.269 31.4712 104.247 31.4252 104.247 30.2931V28.947C104.247 28.7928 104.247 28.7928 104.668 28.7928C105.077 28.7928 105.218 28.8921 105.36 29.1C105.52 29.3365 105.71 29.6348 105.893 29.9246C106.084 30.2261 106.266 30.513 106.408 30.7148C107.142 31.7598 107.696 32.096 108.686 32.096C108.893 32.096 109.074 32.0762 109.182 32.0379L109.207 32.0257C109.258 31.9858 109.282 31.922 109.273 31.8591C109.264 31.8025 109.227 31.7553 109.176 31.7339ZM104.247 25.4849C104.247 25.2431 104.247 25.225 104.861 25.225C106.061 25.225 106.488 26.0669 106.488 26.7881C106.488 27.381 106.327 27.7814 105.985 28.0486C105.681 28.2795 105.263 28.3101 104.936 28.3101C104.453 28.3101 104.304 28.2916 104.26 28.2762C104.247 28.2334 104.247 28.1083 104.247 27.9844V25.4849Z" fill="#991A30"/>
<path d="M119.807 25.1807L120.097 25.1581L120.114 25.1472C120.167 25.1109 120.195 25.0374 120.189 24.9438C120.185 24.9058 120.172 24.7807 120.085 24.7363L120.065 24.7271L120.043 24.7287C119.537 24.7501 119.162 24.761 118.722 24.761C118.264 24.761 117.895 24.7501 117.379 24.7287L117.356 24.7271L117.338 24.7363C117.251 24.7807 117.236 24.9075 117.234 24.9458C117.228 25.0374 117.255 25.1109 117.309 25.1472L117.325 25.1581L117.612 25.1807C118.159 25.2267 118.19 25.3002 118.19 26.4674V30.2718C118.19 31.4225 118.164 31.4834 117.612 31.5492L117.316 31.5831L117.296 31.6041C117.235 31.6651 117.224 31.7631 117.238 31.8362C117.251 31.9157 117.286 31.9754 117.338 32.0017L117.356 32.0106H117.379C117.921 31.9892 118.28 31.9799 118.722 31.9799C119.146 31.9799 119.501 31.9892 120.043 32.0106H120.065L120.085 32.0017C120.172 31.9573 120.185 31.8318 120.189 31.795C120.195 31.7022 120.167 31.6287 120.114 31.5936L119.81 31.5492C119.258 31.4834 119.232 31.4225 119.232 30.2718V26.4674C119.232 25.3002 119.265 25.2267 119.807 25.1807Z" fill="#991A30"/>
<path d="M128.774 24.4502C128.748 24.4502 128.708 24.4534 128.674 24.4688L128.647 24.478L128.632 24.5027C128.494 24.7424 128.438 24.761 127.869 24.761H123.452C122.972 24.761 122.758 24.7363 122.714 24.4962L122.71 24.472L122.691 24.4522C122.66 24.4244 122.612 24.4094 122.545 24.4094C122.519 24.4094 122.431 24.4122 122.384 24.4429L122.355 24.4611L122.349 24.4978C122.276 24.9256 122.117 25.6009 121.946 26.0763L121.935 26.1098L121.952 26.1405C122.016 26.2705 122.233 26.333 122.352 26.2442L122.369 26.2321L122.378 26.2107C122.486 25.9629 122.589 25.7308 122.838 25.5016C123.073 25.2848 123.608 25.2574 124.097 25.2574H124.686C124.924 25.2574 124.924 25.2574 124.924 25.5157V30.2948C124.924 31.4532 124.858 31.502 124.337 31.5476L123.952 31.5811L123.916 31.592C123.853 31.63 123.815 31.7111 123.82 31.8059C123.823 31.8778 123.853 31.9678 123.923 32.0017L123.941 32.0106H123.961C124.615 31.9908 125.011 31.9787 125.444 31.9787C125.863 31.9787 126.206 31.9892 126.841 32.0106H126.862L126.88 32.0017C126.969 31.9573 126.981 31.8318 126.985 31.795C126.991 31.7022 126.963 31.6288 126.911 31.5936L126.529 31.5476C125.998 31.502 125.964 31.4314 125.964 30.2948V25.5016C125.964 25.3946 125.964 25.2909 125.98 25.274C126.001 25.2574 126.115 25.2574 126.193 25.2574H126.951C127.524 25.2574 127.914 25.3381 128.143 25.5064C128.243 25.5827 128.331 25.8531 128.377 26.2321L128.38 26.2551L128.394 26.2733C128.433 26.3205 128.506 26.3496 128.588 26.3496C128.689 26.3496 128.775 26.3068 128.809 26.2366L128.818 26.2152V26.1926C128.786 25.8854 128.861 25.0233 128.975 24.5959L128.983 24.5668L128.97 24.539C128.931 24.4595 128.818 24.4502 128.774 24.4502Z" fill="#991A30"/>
</g>
<defs>
<clipPath id="clip0_350_30362">
<rect width="157.692" height="80" fill="white" transform="translate(0.535156 0.00195312)"/>
</clipPath>
</defs>
</svg>
