<svg width="121" height="80" viewBox="0 0 121 80" fill="none" xmlns="http://www.w3.org/2000/svg">
<path d="M114.527 50.7422C114.467 50.7422 114.406 50.7271 114.361 50.6819L92.6011 28.9067C92.5106 28.8162 92.5106 28.6806 92.6011 28.5902C92.6914 28.4999 92.8271 28.4999 92.9174 28.5902L114.693 50.3655C114.783 50.456 114.783 50.5916 114.693 50.6819C114.648 50.7121 114.587 50.7422 114.527 50.7422Z" fill="#0626A9"/>
<path d="M92.7824 50.7578C92.7221 50.7578 92.6618 50.7427 92.6167 50.6976C92.5262 50.6072 92.5262 50.4716 92.6167 50.3811L114.392 28.6209C114.482 28.5305 114.618 28.5305 114.708 28.6209C114.799 28.7114 114.799 28.8468 114.708 28.9373L92.9482 50.6976C92.9029 50.7427 92.8428 50.7578 92.7824 50.7578Z" fill="#0626A9"/>
<path d="M103.693 55.2637C103.572 55.2637 103.467 55.1583 103.467 55.0375V24.2358C103.467 24.1152 103.572 24.0097 103.693 24.0097C103.813 24.0097 103.919 24.1152 103.919 24.2358V55.0375C103.919 55.1583 103.813 55.2637 103.693 55.2637Z" fill="#0626A9"/>
<path d="M119.094 39.8623H88.2769C88.1563 39.8623 88.0508 39.7568 88.0508 39.6362C88.0508 39.5157 88.1563 39.4102 88.2769 39.4102H119.079C119.199 39.4102 119.305 39.5157 119.305 39.6362C119.305 39.7568 119.214 39.8623 119.094 39.8623Z" fill="#0626A9"/>
<path d="M116.998 32.1621H90.2496C90.1289 32.1621 90.0234 32.0566 90.0234 31.936C90.0234 31.8155 90.1289 31.71 90.2496 31.71H116.998C117.118 31.71 117.224 31.8155 117.224 31.936C117.224 32.0566 117.118 32.1621 116.998 32.1621Z" fill="#0626A9"/>
<path d="M116.967 47.5625H90.2494C90.1288 47.5625 90.0234 47.4572 90.0234 47.3364C90.0234 47.2159 90.1288 47.1104 90.2494 47.1104H116.967C117.088 47.1104 117.194 47.2159 117.194 47.3364C117.194 47.4572 117.103 47.5625 116.967 47.5625Z" fill="#0626A9"/>
<path d="M103.693 55.2637C103.572 55.2637 103.467 55.1583 103.467 55.0375V24.2358C103.467 24.1152 103.572 24.0097 103.693 24.0097C103.813 24.0097 103.919 24.1152 103.919 24.2358V55.0375C103.919 55.1583 103.813 55.2637 103.693 55.2637Z" fill="#0626A9"/>
<path d="M95.9917 53.1533C95.8711 53.1533 95.7656 53.0478 95.7656 52.9272V26.2696C95.7656 26.1489 95.8711 26.0435 95.9917 26.0435C96.1122 26.0435 96.2179 26.1489 96.2179 26.2696V52.9272C96.2179 53.0628 96.1122 53.1533 95.9917 53.1533Z" fill="#0626A9"/>
<path d="M111.392 53.1533C111.272 53.1533 111.166 53.0478 111.166 52.9272V26.3147C111.166 26.194 111.272 26.0886 111.392 26.0886C111.513 26.0886 111.618 26.194 111.618 26.3147V52.9272C111.618 53.0628 111.513 53.1533 111.392 53.1533Z" fill="#0626A9"/>
<path d="M119.093 39.8623C119.033 39.8623 118.973 39.8472 118.928 39.8019L103.527 24.386C103.436 24.2956 103.436 24.1599 103.527 24.0695C103.617 23.9792 103.753 23.9792 103.843 24.0695L119.244 39.4704C119.335 39.561 119.335 39.6966 119.244 39.7869C119.199 39.8322 119.154 39.8623 119.093 39.8623Z" fill="#0626A9"/>
<path d="M103.691 55.2637C103.631 55.2637 103.571 55.2485 103.525 55.2033L88.1245 39.8025C88.034 39.712 88.034 39.5765 88.1245 39.486C88.2147 39.3955 88.3505 39.3955 88.4409 39.486L103.842 54.887C103.932 54.9773 103.932 55.1131 103.842 55.2033C103.797 55.2485 103.736 55.2637 103.691 55.2637Z" fill="#0626A9"/>
<path d="M103.693 55.2637C103.632 55.2637 103.572 55.2485 103.527 55.2033C103.436 55.1131 103.436 54.9773 103.527 54.887L118.928 39.486C119.018 39.3955 119.154 39.3955 119.244 39.486C119.335 39.5765 119.335 39.712 119.244 39.8025L103.843 55.2033C103.798 55.2485 103.738 55.2637 103.693 55.2637Z" fill="#0626A9"/>
<path d="M88.2766 39.8623C88.2162 39.8623 88.1561 39.8472 88.1109 39.8019C88.0203 39.7116 88.0203 39.5759 88.1109 39.4856L103.527 24.0695C103.617 23.9792 103.753 23.9792 103.843 24.0695C103.934 24.1599 103.934 24.2956 103.843 24.386L88.4423 39.8019C88.3971 39.8322 88.337 39.8623 88.2766 39.8623Z" fill="#0626A9"/>
<path d="M103.647 24.4612C95.283 24.4612 88.4716 31.2726 88.4716 39.621C88.4716 47.9845 95.283 54.7808 103.647 54.7808C112.01 54.7808 118.822 47.9845 118.822 39.621C118.822 31.2576 112.01 24.4612 103.647 24.4612ZM103.647 55.248C95.0268 55.248 88.0195 48.2408 88.0195 39.6361C88.0195 31.0163 95.0268 24.0242 103.647 24.0242C112.266 24.0242 119.273 31.0315 119.273 39.6361C119.273 48.2408 112.266 55.248 103.647 55.248Z" fill="#0626A9"/>
<path d="M104.974 39.6216C104.974 40.3449 104.386 40.9326 103.663 40.9326C102.939 40.9326 102.352 40.3449 102.352 39.6216C102.352 38.8983 102.939 38.3106 103.663 38.3106C104.401 38.3255 104.974 38.8983 104.974 39.6216Z" fill="#0626A9"/>
<path d="M104.657 47.3372C104.657 47.8798 104.22 48.3018 103.693 48.3018C103.165 48.3018 102.729 47.8646 102.729 47.3372C102.729 46.8099 103.165 46.3727 103.693 46.3727C104.22 46.3727 104.657 46.7947 104.657 47.3372Z" fill="#0626A9"/>
<path d="M96.9562 31.936C96.9562 32.4634 96.5192 32.9004 95.9918 32.9004C95.4643 32.9004 95.0273 32.4634 95.0273 31.936C95.0273 31.3935 95.4643 30.9715 95.9918 30.9715C96.5192 30.9715 96.9562 31.3935 96.9562 31.936Z" fill="#0626A9"/>
<path d="M97.2881 47.3364C97.2881 48.0598 96.7002 48.6475 95.977 48.6475C95.2536 48.6475 94.666 48.0598 94.666 47.3364C94.666 46.6133 95.2536 46.0254 95.977 46.0254C96.7154 46.0254 97.2881 46.6133 97.2881 47.3364Z" fill="#0626A9"/>
<path d="M120.058 39.6362C120.058 40.1636 119.621 40.6006 119.093 40.6006C118.566 40.6006 118.129 40.1636 118.129 39.6362C118.129 39.0937 118.566 38.6717 119.093 38.6717C119.621 38.6717 120.058 39.0937 120.058 39.6362Z" fill="#0626A9"/>
<path d="M104.657 55.0374C104.657 55.5648 104.22 56.002 103.693 56.002C103.165 56.002 102.729 55.5648 102.729 55.0374C102.729 54.5101 103.165 54.0729 103.693 54.0729C104.22 54.0729 104.657 54.5101 104.657 55.0374Z" fill="#1226AA"/>
<path d="M112.688 52.9272C112.688 53.6506 112.101 54.2383 111.377 54.2383C110.654 54.2383 110.066 53.6506 110.066 52.9272C110.066 52.2039 110.654 51.6162 111.377 51.6162C112.116 51.6312 112.688 52.2039 112.688 52.9272Z" fill="#0626A9"/>
<path d="M91.214 47.3372C91.214 47.8798 90.7771 48.3018 90.2496 48.3018C89.7221 48.3018 89.2852 47.8646 89.2852 47.3372C89.2852 46.8099 89.7221 46.3727 90.2496 46.3727C90.7771 46.3727 91.214 46.7947 91.214 47.3372Z" fill="#0626A9"/>
<path d="M112.688 26.3149C112.688 27.0383 112.101 27.626 111.377 27.626C110.654 27.626 110.066 27.0383 110.066 26.3149C110.066 25.5916 110.654 25.0039 111.377 25.0039C112.116 25.0039 112.688 25.5916 112.688 26.3149Z" fill="#0626A9"/>
<path d="M91.5459 31.9507C91.5459 32.674 90.958 33.2617 90.2349 33.2617C89.5114 33.2617 88.9238 32.674 88.9238 31.9507C88.9238 31.2274 89.5114 30.6397 90.2349 30.6397C90.9732 30.6546 91.5459 31.2425 91.5459 31.9507Z" fill="#0626A9"/>
<path d="M117.962 31.936C117.962 32.4634 117.525 32.9004 116.997 32.9004C116.47 32.9004 116.033 32.4634 116.033 31.936C116.033 31.3935 116.47 30.9715 116.997 30.9715C117.525 30.9715 117.962 31.3935 117.962 31.936Z" fill="#0626A9"/>
<path d="M112.357 39.6518C112.357 40.1942 111.92 40.6162 111.392 40.6162C110.865 40.6162 110.428 40.1793 110.428 39.6518C110.428 39.1243 110.865 38.6873 111.392 38.6873C111.92 38.6873 112.357 39.1093 112.357 39.6518Z" fill="#0626A9"/>
<path d="M93.7316 28.7416C93.7316 29.2691 93.2946 29.7061 92.7672 29.7061C92.2397 29.7061 91.8027 29.2691 91.8027 28.7416C91.8027 28.2142 92.2397 27.7772 92.7672 27.7772C93.2946 27.7772 93.7316 28.2142 93.7316 28.7416Z" fill="#0626A9"/>
<path d="M20.6747 28.7865H16.9675C16.8772 28.7865 16.8018 28.8316 16.7717 28.9071L10.5179 40.5104L4.20381 28.9071C4.15856 28.8316 4.08318 28.7865 4.00796 28.7865H0.315815C0.195337 28.7865 0.0898438 28.892 0.0898438 29.0126V50.8481C0.0898438 50.9686 0.195337 51.0742 0.315815 51.0742H3.85721C3.97784 51.0742 4.08318 50.9686 4.08318 50.8481V36.5925L9.64395 46.2972C9.68905 46.3725 9.76443 46.4178 9.8398 46.4178H11.1357C11.2111 46.4178 11.2864 46.3725 11.3317 46.2972L16.862 36.5623V50.8331C16.862 50.9536 16.9675 51.0591 17.0882 51.0591H20.6595C20.7199 51.0591 20.7802 51.029 20.8254 50.9988C20.8705 50.9536 20.8857 50.8934 20.8857 50.8331V29.0126C20.9008 28.8769 20.7953 28.7865 20.6747 28.7865Z" fill="#011B2B"/>
<path d="M76.2206 28.7256H72.8902C72.7697 28.7256 72.6641 28.8311 72.6641 28.9517V50.9078C72.6641 51.0284 72.7697 51.1338 72.8902 51.1338H76.2206C76.3411 51.1338 76.4467 51.0284 76.4467 50.9078V28.9517C76.4467 28.8161 76.3562 28.7256 76.2206 28.7256Z" fill="#011B2B"/>
<path d="M67.0728 47.0201L64.6615 44.5788C64.5712 44.4884 64.4356 44.4884 64.3451 44.5788C62.5669 46.2364 60.9544 47.2612 58.3626 47.2612C54.4748 47.2612 51.5361 44.1117 51.5361 39.9224V39.8621C51.5361 37.873 52.2294 36.0345 53.4801 34.6782C54.746 33.307 56.4789 32.5534 58.3626 32.5534C60.4572 32.5534 62.2505 33.3522 64.1945 35.1455C64.2397 35.1906 64.3 35.2057 64.3602 35.2057C64.4204 35.2057 64.4808 35.1756 64.5261 35.1303L66.937 32.3575C67.0124 32.2671 67.0124 32.1315 66.922 32.041C65.174 30.3684 62.7779 28.6505 58.4079 28.6505C52.0033 28.6505 47.166 33.5028 47.166 39.9224V39.9827C47.166 43.0268 48.2962 45.8447 50.3307 47.9393C52.3952 50.0492 55.1981 51.1943 58.2571 51.1943C60.7887 51.1943 63.8177 50.7422 67.0879 47.3365C67.1631 47.2463 67.1631 47.1105 67.0728 47.0201Z" fill="#011B2B"/>
<path d="M40.7479 39.9376C39.7081 39.1088 38.3518 38.5664 36.3928 38.1745C36.3778 38.1745 36.3326 38.1595 36.2873 38.1444C36.2572 38.1444 36.2271 38.1293 36.1968 38.1293C36.0009 38.0842 35.564 37.9937 35.1119 37.9033C34.6297 37.8129 34.1173 37.7074 33.9666 37.6622C32.776 37.3307 32.0678 37.0142 31.6459 36.6072C31.239 36.2305 31.0432 35.7333 31.013 35.0854V35.025V34.8443C31.0733 33.4579 32.1582 32.4783 33.8611 32.2673C34.2831 32.2222 34.6899 32.2071 35.0969 32.2372C36.8146 32.3577 38.2764 32.9455 39.6026 34.0154C39.6628 34.0757 39.7834 34.0907 39.8588 34.0606H39.8738C39.934 34.0606 39.9944 34.0304 40.0395 33.9852L42.0589 31.5892C42.1343 31.4987 42.1343 31.3481 42.0286 31.2728C39.9191 29.4494 37.6284 28.6356 34.5995 28.6356C30.0937 28.6356 27.0648 31.2578 27.0648 35.1757V35.2511C27.0648 37.0593 27.6073 38.4308 28.6923 39.4554C29.6719 40.3746 31.1034 41.0227 33.0474 41.4296C33.1679 41.4597 33.4694 41.5201 33.7707 41.5801C33.9817 41.6254 34.1776 41.6555 34.2679 41.6858C34.4035 41.7159 34.705 41.776 34.9912 41.8213C35.2626 41.8665 35.5337 41.9269 35.6242 41.9419C36.7091 42.2131 37.4175 42.4241 37.9449 42.8459C38.5476 43.3132 38.8039 43.9009 38.819 44.7598V44.8202C38.819 46.3723 37.5983 47.397 35.564 47.5627C35.3378 47.5779 35.0967 47.5929 34.8556 47.5929C34.6448 47.5929 34.4338 47.5929 34.2228 47.5779C32.1129 47.4271 30.4704 46.7189 28.9183 45.2873C28.8581 45.227 28.7677 45.2119 28.7073 45.227H28.6923C28.6319 45.227 28.5717 45.2572 28.5264 45.3024L26.3264 47.6985C26.236 47.7889 26.251 47.9245 26.3415 48.0148C28.6319 50.1848 31.4047 51.2246 34.8255 51.2246C39.6778 51.2246 42.7972 48.6175 42.7972 44.5941V44.5338C42.8123 42.5597 42.1191 41.0076 40.7479 39.9376Z" fill="#011B2B"/>
<path d="M96.9562 26.3149C96.9562 26.8423 96.5192 27.2793 95.9918 27.2793C95.4643 27.2793 95.0273 26.8423 95.0273 26.3149C95.0273 25.7724 95.4643 25.3504 95.9918 25.3504C96.5192 25.3504 96.9562 25.7874 96.9562 26.3149Z" fill="#0626A9"/>
</svg>
