<svg width="1376" height="80" viewBox="0 0 1376 80" fill="none" xmlns="http://www.w3.org/2000/svg">
<rect width="3278.92" height="80.0039" fill="white"/>
<path d="M217.46 48.002C224.451 42.0105 234.27 36.1854 239.662 34.0883C238.83 33.5558 237.532 32.7902 236.068 31.958C229.111 34.2548 220.989 39.3476 213.732 45.1061C214.964 46.0381 216.262 47.0034 217.46 48.002Z" fill="#E31837"/>
<path d="M214.264 31.7251C213.232 31.2258 212.1 30.7598 211.235 30.3604C208.605 31.6585 205.177 33.6224 200.85 36.718C201.782 37.2173 202.78 37.8165 203.845 38.4156C207.174 35.9525 210.536 33.6224 214.264 31.7251Z" fill="#012169"/>
<path d="M220.488 28.8621C219.223 28.1631 214.83 26.532 211.801 25.833C210.902 26.1659 209.637 26.6652 208.771 27.0313C209.87 27.3309 213.964 28.4293 217.459 30.1935C218.358 29.7608 219.623 29.2282 220.488 28.8621Z" fill="#E31837"/>
<path d="M205.61 28.4297C201.715 30.2271 197.621 32.6903 195.391 34.1216C196.189 34.4878 196.988 34.7874 198.087 35.32C203.013 31.9913 206.874 29.9609 208.406 29.2951C207.307 28.8957 206.275 28.6294 205.61 28.4297Z" fill="#012169"/>
<path d="M223.418 27.8299C224.317 27.5303 225.349 27.264 226.247 26.9977C223.651 25.8993 220.389 24.7343 217.46 24.002C216.994 24.1351 215.596 24.5012 214.63 24.8008C215.629 25.1004 218.924 25.866 223.418 27.8299ZM207.008 40.3455C208.073 40.978 209.205 41.8434 210.303 42.5757C217.593 36.917 224.783 32.5565 232.672 30.0933C231.573 29.5275 230.608 29.0282 229.376 28.429C224.65 29.6273 216.561 32.8561 207.008 40.3455Z" fill="#E31837"/>
<path d="M0 46.2705H5.32581C8.022 46.2705 9.28688 44.8724 9.28688 42.9085C9.28688 41.3108 8.45473 40.2456 6.72384 39.9128C8.25501 39.5466 8.95402 38.6146 8.95402 37.2499C8.95402 35.519 7.68914 34.1209 4.99295 34.1209H0.0332863V46.2705H0ZM4.6268 41.1111C5.62539 41.1111 6.3244 41.6104 6.3244 42.609C6.3244 43.6741 5.65867 44.1068 4.6268 44.1068H2.89591V41.0778H4.6268V41.1111ZM4.29394 36.2513C5.29252 36.2513 5.99154 36.684 5.99154 37.6826C5.99154 38.6812 5.32581 39.1139 4.29394 39.1139H2.89591V36.2513H4.29394ZM20.0384 34.0877H17.0426L12.4824 46.2705H15.5114L16.3436 43.7407H20.7374L21.5695 46.2705H24.6319L20.0384 34.0877ZM18.5405 37.0169L19.9718 41.5105H17.0426L18.5405 37.0169ZM39.8104 34.0877H37.0477V42.2428L31.855 34.0877H28.7594V46.2705H31.5221V38.1486L36.7148 46.2705H39.8104V34.0877ZM52.5591 46.2705L48.5647 40.0792V46.2705H45.6023V34.0877H48.5647V39.9461L52.3594 34.0877H55.6547L51.6604 39.9461L56.0209 46.2705H52.5591ZM66.5061 40.1791C66.5061 42.609 67.9707 44.1068 69.868 44.1068C71.7653 44.1068 73.2299 42.609 73.2299 40.1791C73.2299 37.7492 71.7653 36.2513 69.868 36.2513C67.9707 36.2513 66.5061 37.7492 66.5061 40.1791ZM63.3772 40.1791C63.4104 36.6174 65.9069 33.8214 69.868 33.8214C73.8291 33.8214 76.3255 36.6174 76.3588 40.1791C76.3255 43.7407 73.8291 46.5367 69.868 46.5367C65.9069 46.5367 63.4104 43.7407 63.3772 40.1791ZM80.4198 46.2705H83.3822V41.4772H87.2434V39.1472H83.3822V36.4177H88.0423L88.5749 34.0877H80.4198V46.2705ZM102.389 34.0877H99.393L94.8327 46.2705H97.8618L98.6939 43.7407H103.088L103.92 46.2705H106.982L102.389 34.0877ZM100.891 37.0169L102.322 41.5105H99.393L100.891 37.0169ZM124.557 34.0877H121.096L117.933 40.6784L114.771 34.0877H111.309V46.2705H113.972V38.1153L117.9 46.2705L121.828 38.1153V46.2705H124.591L124.557 34.0877ZM130.316 46.2705H138.638V43.9404H133.278V41.2109H137.506V38.9475H133.278V36.4177H138.172L138.704 34.0877H130.316V46.2705ZM149.922 46.2705H153.15L150.121 41.1111C151.786 40.6451 152.584 39.48 152.584 37.7824C152.584 35.5855 151.253 34.1209 148.257 34.1209H143.564V46.3037H146.46V41.5105H147.259L149.922 46.2705ZM147.691 36.3511C148.923 36.3511 149.555 36.8837 149.555 37.9156C149.555 38.9475 148.923 39.48 147.691 39.48H146.427V36.3511H147.691ZM157.577 46.2705H160.54V34.1209H157.577V46.2705ZM175.119 43.0084C173.988 43.8073 172.989 44.0736 171.957 44.0736C169.694 44.0736 168.096 42.5091 168.096 40.1791C168.096 37.849 169.66 36.2846 171.857 36.2846C172.856 36.2846 173.854 36.5509 174.953 37.3497V34.587C173.954 34.0211 172.789 33.7881 171.491 33.7881C167.463 33.7881 164.934 36.5841 164.9 40.1458C164.934 43.7407 167.397 46.5035 171.491 46.5035C172.856 46.5035 174.021 46.2705 175.086 45.7046V43.0084H175.119ZM185.971 34.0877H182.975L178.415 46.2705H181.444L182.276 43.7407H186.67L187.502 46.2705H190.564L185.971 34.0877ZM184.473 37.0169L185.904 41.5105H182.975L184.473 37.0169Z" fill="#012169"/>
<mask id="mask0_374_14576" style="mask-type:luminance" maskUnits="userSpaceOnUse" x="303" y="10" width="194" height="61">
<path d="M496.662 10.0039H303.662V70.001H496.662V10.0039Z" fill="white"/>
</mask>
<g mask="url(#mask0_374_14576)">
<path d="M306.498 12.8096C306.498 12.3477 305.199 11.1159 304.772 11.1159H303.662V10.0039H310.205L316.936 26.9748H317.09L324.18 10.0039H330.04V11.1159H328.929C328.502 11.1159 327.204 12.3477 327.204 12.8096V29.6779C327.204 30.1398 328.502 31.3715 328.929 31.3715H330.04V32.4836H321.344V31.3715H322.454C322.881 31.3715 324.18 30.1398 324.18 29.6779V13.3057L315.996 32.8941L307.813 12.9636V29.6779C307.813 30.1398 309.111 31.3715 309.539 31.3715H310.649V32.4836H303.645V31.3715H304.755C305.182 31.3715 306.481 30.1398 306.481 29.6779V12.8096H306.498Z" fill="#1D1D1B"/>
</g>
<mask id="mask1_374_14576" style="mask-type:luminance" maskUnits="userSpaceOnUse" x="303" y="10" width="194" height="61">
<path d="M496.662 10.0039H303.662V70.001H496.662V10.0039Z" fill="white"/>
</mask>
<g mask="url(#mask1_374_14576)">
<path d="M339.488 22.8865C339.881 20.6283 339.522 18.5925 337.028 18.5925C334.123 18.5925 332.705 20.902 332.705 24.3407C332.705 27.5912 334.772 30.2771 338.104 30.2771C340.632 30.2771 341.709 29.3875 342.734 27.6767H343.622C342.665 30.8588 340.718 32.8604 337.079 32.8604C333.03 32.8604 330.416 29.4046 330.416 25.2645C330.416 20.5599 333.525 17.4805 337.352 17.4805C339.641 17.4805 341.179 18.199 342.512 19.5163L340.376 22.8181L339.488 22.8865Z" fill="#1D1D1B"/>
</g>
<mask id="mask2_374_14576" style="mask-type:luminance" maskUnits="userSpaceOnUse" x="303" y="10" width="194" height="61">
<path d="M496.662 10.0039H303.662V70.001H496.662V10.0039Z" fill="white"/>
</mask>
<g mask="url(#mask2_374_14576)">
<path d="M368.872 14.4522C369.949 14.4522 370.752 13.7165 370.752 12.5703C370.752 11.4241 369.949 10.7227 368.872 10.7227C367.796 10.7227 366.959 11.4241 366.959 12.5703C366.959 13.7165 367.779 14.4522 368.872 14.4522Z" fill="#1D1D1B"/>
</g>
<mask id="mask3_374_14576" style="mask-type:luminance" maskUnits="userSpaceOnUse" x="303" y="10" width="194" height="61">
<path d="M496.662 10.0039H303.662V70.001H496.662V10.0039Z" fill="white"/>
</mask>
<g mask="url(#mask3_374_14576)">
<path d="M389.543 31.3882C389.116 31.3882 387.938 30.3446 387.938 29.8485V21.7223C387.938 19.2245 386.144 17.548 383.889 17.548C381.258 17.548 379.908 19.0706 378.148 20.8498L377.584 17.8559H372.989V18.9679H373.877C374.304 18.9679 375.483 20.0457 375.483 20.5076V29.8314C375.483 30.3275 374.304 31.3711 373.877 31.3711H372.989H372.1C371.708 31.3711 370.495 30.3275 370.495 29.8314V17.8388H365.284V18.9508H366.172C366.599 18.9508 367.778 20.0286 367.778 20.4905V29.8143C367.778 30.3104 366.599 31.354 366.172 31.354H365.284H364.549C364.088 31.354 362.26 29.9682 361.901 29.4721L354.025 19.0021L359.492 13.1342C359.8 12.792 361.935 11.0983 362.362 11.0983H363.439V9.98633H355.29V11.0983H356.366C356.793 11.0983 358.057 12.638 357.716 13.0486L349.686 22.0131V12.8091C349.686 12.3472 350.984 11.1154 351.412 11.1154H352.522V10.0034H343.758V11.1154H344.868C345.295 11.1154 346.594 12.3472 346.594 12.8091V29.6774C346.594 30.1393 345.295 31.3711 344.868 31.3711H343.758V32.4831H352.522V31.3711H351.429C351.002 31.3711 349.703 30.1393 349.703 29.6774V23.7068L351.992 21.2433L359.766 32.4831H365.284H372.989H380.608V31.3711H379.788C379.361 31.3711 378.182 30.3275 378.182 29.8314V22.3895C378.182 21.3972 380.865 19.3614 382.932 19.3614C384.504 19.3614 385.238 20.4392 385.238 21.8591V29.8314C385.238 30.3275 384.059 31.3711 383.632 31.3711H382.795V32.4831H390.261V31.3711H389.543V31.3882Z" fill="#1D1D1B"/>
</g>
<mask id="mask4_374_14576" style="mask-type:luminance" maskUnits="userSpaceOnUse" x="303" y="10" width="194" height="61">
<path d="M496.662 10.0039H303.662V70.001H496.662V10.0039Z" fill="white"/>
</mask>
<g mask="url(#mask4_374_14576)">
<path d="M392.243 27.3688C392.243 28.7203 394.225 31.6628 397.369 31.6628C399.197 31.6628 400.205 31.0127 400.205 29.6612C400.205 28.0189 398.752 27.4714 397.454 26.9069C396.429 26.4792 395.609 26.137 394.43 25.6067C392.67 24.8026 391.338 23.6222 391.338 21.6206C391.338 18.986 392.91 17.4805 395.711 17.4805C397.317 17.4805 398.206 18.2503 399.316 18.2503C399.743 18.2503 400 18.1648 400.119 17.8568H400.922V22.3733H400.034C400.034 21.1757 398.342 18.6096 395.626 18.6096C393.935 18.6096 393.132 19.3452 393.132 20.5599C393.132 21.8259 394.003 22.2878 395.506 22.9379C396.617 23.3998 397.454 23.7761 398.65 24.238C400.222 24.8539 402.016 26.1199 402.016 28.4637C402.016 31.2522 400.102 32.8775 397.352 32.8775C395.506 32.8775 394.413 32.005 393.149 32.005C392.568 32.005 392.414 32.159 392.038 32.5011H391.338V27.3688H392.243Z" fill="#1D1D1B"/>
</g>
<mask id="mask5_374_14576" style="mask-type:luminance" maskUnits="userSpaceOnUse" x="303" y="10" width="194" height="61">
<path d="M496.662 10.0039H303.662V70.001H496.662V10.0039Z" fill="white"/>
</mask>
<g mask="url(#mask5_374_14576)">
<path d="M402.922 25.1782C402.922 20.85 405.86 17.4797 409.619 17.5139C412.916 17.5481 414.778 19.8064 414.932 22.6463L415 23.6898L405.279 24.4597C405.279 27.4022 407.313 30.2935 410.61 30.2935C413.104 30.2935 414.249 29.3354 415.137 27.6589H416.025C415.086 30.858 413.275 32.8425 409.687 32.8425C405.621 32.8425 402.922 29.2841 402.922 25.1782ZM412.489 22.8002C412.728 20.7302 412.404 18.6259 409.551 18.6259C406.527 18.6259 405.331 21.1237 405.228 23.4161L412.489 22.8002Z" fill="#1D1D1B"/>
</g>
<mask id="mask6_374_14576" style="mask-type:luminance" maskUnits="userSpaceOnUse" x="303" y="10" width="194" height="61">
<path d="M496.662 10.0039H303.662V70.001H496.662V10.0039Z" fill="white"/>
</mask>
<g mask="url(#mask6_374_14576)">
<path d="M417.493 20.6274C417.271 20.1313 415.973 18.9509 415.614 18.9509H414.965V17.8389H422.704V18.9509H421.816C421.406 18.9509 420.517 19.9773 420.517 20.5248L423.917 28.3431L427.248 20.559C427.283 19.9773 426.377 18.9509 425.984 18.9509H425.096V17.8389H430.921V18.9509H430.238C429.896 18.9509 428.854 20.0629 428.547 20.559L423.575 31.7817L419.902 39.8737L418.57 39.2578L422.465 31.2856L417.493 20.6274Z" fill="#1D1D1B"/>
</g>
<mask id="mask7_374_14576" style="mask-type:luminance" maskUnits="userSpaceOnUse" x="303" y="10" width="194" height="61">
<path d="M496.662 10.0039H303.662V70.001H496.662V10.0039Z" fill="white"/>
</mask>
<g mask="url(#mask7_374_14576)">
<path d="M347.056 44.1168C347.056 45.9131 348.286 47.3673 350.233 48.1029C353.138 51.2165 356.623 54.5354 359.681 57.2556C360.552 55.8356 360.86 54.313 360.86 52.4654C360.86 50.3954 359.51 49.1636 357.306 49.0952V47.9832H365.267V49.0952H364.396C363.969 49.0952 362.414 50.8573 362.397 51.5416C362.329 53.4577 361.816 55.8356 360.398 57.8715C362.038 59.2914 363.661 60.6258 364.96 61.5154H366.309V62.6274H363.866C361.68 62.6274 360.125 62.0458 358.28 60.335C356.486 62.0629 354.214 63.0209 350.899 63.0209C347.261 63.0209 343.775 60.335 343.775 56.3831C343.775 53.2695 345.347 50.977 347.38 49.5571C346.304 48.1713 345.552 46.8369 345.552 44.8524C345.552 41.6362 347.654 39.8398 350.951 39.8398C353.018 39.8398 354.094 40.5242 355.051 40.5242C355.546 40.5242 355.854 40.4899 356.093 40.1307H357.05V45.4512H356.093C356.093 43.9286 353.872 40.9005 350.882 40.9005C348.491 40.9005 347.056 42.081 347.056 44.1168ZM346.099 54.9289C346.099 58.1452 349.533 61.2246 352.728 61.2246C354.726 61.2246 356.332 60.66 357.596 59.702C354.333 56.8963 350.677 53.3721 347.876 50.1558C346.714 51.3705 346.099 52.6023 346.099 54.9289Z" fill="#1D1D1B"/>
</g>
<mask id="mask8_374_14576" style="mask-type:luminance" maskUnits="userSpaceOnUse" x="303" y="10" width="194" height="61">
<path d="M496.662 10.0039H303.662V70.001H496.662V10.0039Z" fill="white"/>
</mask>
<g mask="url(#mask8_374_14576)">
<path d="M389.357 48.1025C389.357 45.793 386.76 41.0883 382.541 41.0883C378.645 41.0883 376.339 43.2439 375.946 48.3249C375.792 50.3094 375.861 52.0544 376.014 54.0389C376.39 57.9566 379.107 61.2071 383.668 61.2071C387.563 61.2071 389.443 59.5647 390.895 56.6051H392.074C390.621 60.6254 387.478 63.0376 383.002 63.0376C376.544 63.0376 372.393 57.7171 372.393 51.3017C372.393 44.8691 376.151 39.7539 382.455 39.7539C384.864 39.7539 386.367 40.7462 388.127 40.7462C388.845 40.7462 389.169 40.558 389.511 40.1645H390.348V48.1367H389.357V48.1025Z" fill="#1D1D1B"/>
</g>
<mask id="mask9_374_14576" style="mask-type:luminance" maskUnits="userSpaceOnUse" x="303" y="10" width="194" height="61">
<path d="M496.662 10.0039H303.662V70.001H496.662V10.0039Z" fill="white"/>
</mask>
<g mask="url(#mask9_374_14576)">
<path d="M393.559 55.2884C393.559 50.5666 396.958 47.5898 400.802 47.5898C404.663 47.5898 408.046 50.5495 408.046 55.2884C408.046 60.0101 404.646 63.0211 400.802 63.0211C396.958 63.0211 393.559 60.0272 393.559 55.2884ZM405.125 57.7348C405.313 56.2464 405.313 54.2448 405.125 52.7564C404.851 50.4126 403.553 48.8387 400.836 48.8387C398.205 48.8387 396.89 50.4126 396.548 52.7393C396.326 54.1592 396.326 56.2635 396.548 57.7177C396.89 59.9759 398.154 61.6353 400.836 61.6353C403.587 61.6353 404.851 60.0272 405.125 57.7348Z" fill="#1D1D1B"/>
</g>
<mask id="mask10_374_14576" style="mask-type:luminance" maskUnits="userSpaceOnUse" x="303" y="10" width="194" height="61">
<path d="M496.662 10.0039H303.662V70.001H496.662V10.0039Z" fill="white"/>
</mask>
<g mask="url(#mask10_374_14576)">
<path d="M431.726 59.9582C431.726 60.4543 432.837 61.4979 433.264 61.4979H433.947V62.6099H426.669V61.4979H427.506C427.933 61.4979 429.044 60.4543 429.044 59.9582V51.832C429.044 50.4121 428.326 49.4198 426.755 49.4198C424.841 49.4198 422.466 51.2674 422.466 52.2597V59.9582C422.466 60.4543 423.577 61.4979 424.004 61.4979H424.841V62.6099H417.41V61.4979H418.247C418.674 61.4979 419.784 60.4543 419.784 59.9582V51.832C419.784 50.4121 419.05 49.4198 417.478 49.4198C415.564 49.4198 413.19 51.3701 413.19 52.3623V59.9582C413.19 60.4543 414.3 61.4979 414.727 61.4979H415.564V62.6099H408.133V61.4979H408.97C409.397 61.4979 410.508 60.4543 410.508 59.9582V50.6345C410.508 50.1725 409.397 49.0947 408.97 49.0947H408.133V47.9827H412.592L413.173 50.7884C414.847 49.0263 415.923 47.6748 418.486 47.6748C420.433 47.6748 422.073 48.7184 422.347 50.7713C424.141 49.0092 425.285 47.709 427.745 47.709C429.932 47.709 431.726 49.1974 431.726 51.8491V59.9582Z" fill="#1D1D1B"/>
</g>
<mask id="mask11_374_14576" style="mask-type:luminance" maskUnits="userSpaceOnUse" x="303" y="10" width="194" height="61">
<path d="M496.662 10.0039H303.662V70.001H496.662V10.0039Z" fill="white"/>
</mask>
<g mask="url(#mask11_374_14576)">
<path d="M438.268 47.9828L438.763 50.9767C440.028 48.6329 441.634 47.6064 444.042 47.6064C447.596 47.6064 449.749 50.6003 449.749 55.0826C449.749 59.5648 447.288 62.935 443.735 62.935C441.172 62.935 439.823 61.9428 438.763 60.0609V67.0409C438.763 67.537 439.908 68.5806 440.301 68.5806H441.258V69.6926H433.553V68.5806H434.509C434.937 68.5806 436.047 67.537 436.047 67.0409V50.6345C436.047 50.1726 434.937 49.0948 434.509 49.0948H433.553V47.9828H438.268ZM438.729 53.3205V57.1526C438.729 59.445 440.489 61.3782 442.949 61.3782C445.443 61.3782 446.622 59.8043 446.93 57.4776C447.118 56.0919 447.152 54.4838 446.964 53.1152C446.656 50.7885 445.392 49.3172 443.291 49.3172C440.814 49.3343 439.43 51.028 438.729 53.3205Z" fill="#1D1D1B"/>
</g>
<mask id="mask12_374_14576" style="mask-type:luminance" maskUnits="userSpaceOnUse" x="303" y="10" width="194" height="61">
<path d="M496.662 10.0039H303.662V70.001H496.662V10.0039Z" fill="white"/>
</mask>
<g mask="url(#mask12_374_14576)">
<path d="M481.424 61.5151C480.996 61.5151 479.818 60.4715 479.818 59.9754V51.8321C479.818 49.3343 478.024 47.6578 475.769 47.6578C473.138 47.6578 471.788 49.1633 470.028 50.9596L469.482 47.9657H464.886V49.0777H465.774C466.202 49.0777 467.38 50.1555 467.38 50.6174V59.9412C467.38 60.4373 466.202 61.4809 465.774 61.4809H464.886H464.015C463.622 61.4809 462.409 60.4373 462.409 59.9412V51.9689C462.409 49.0948 460.102 47.6064 456.942 47.6064C453.986 47.6064 452.278 48.6329 451.082 49.8647L453.03 52.8072H454.072C452.995 50.3095 453.798 48.7013 456.293 48.7013C458.924 48.7013 459.744 49.8818 459.71 51.9518L459.675 53.7824L455.917 54.5522C453.85 54.9799 451.202 56.0064 451.202 58.9147C451.202 61.2927 452.893 62.9008 454.909 62.9008C457.061 62.9008 458.616 61.2072 459.778 59.6846L460.154 62.6271H464.869H472.489V61.5151H471.651C471.224 61.5151 470.045 60.4715 470.045 59.9754V52.5164C470.045 51.5241 472.728 49.4883 474.795 49.4883C476.367 49.4883 477.101 50.5661 477.101 51.986V59.9583C477.101 60.4544 475.922 61.498 475.495 61.498H474.658V62.61H482.124V61.498H481.424V61.5151ZM459.727 58.333C459.112 59.4108 457.574 60.8992 456.139 60.8992C454.687 60.8992 453.798 59.8214 453.798 58.5554C453.798 57.1013 454.413 56.109 456.241 55.6471L459.727 54.7575V58.333Z" fill="#1D1D1B"/>
</g>
<mask id="mask13_374_14576" style="mask-type:luminance" maskUnits="userSpaceOnUse" x="303" y="10" width="194" height="61">
<path d="M496.662 10.0039H303.662V70.001H496.662V10.0039Z" fill="white"/>
</mask>
<g mask="url(#mask13_374_14576)">
<path d="M483.234 50.7544C483.011 50.2583 481.713 49.0778 481.354 49.0778H480.705V47.9658H488.444V49.0778H487.556C487.146 49.0778 486.257 50.1043 486.257 50.6517L489.657 58.47L492.989 50.686C493.023 50.1043 492.117 49.0778 491.724 49.0778H490.836V47.9658H496.662V49.0778H495.978C495.637 49.0778 494.595 50.1898 494.287 50.686L489.316 61.9087L485.642 70.0007L484.31 69.3848L488.205 61.4125L483.234 50.7544Z" fill="#1D1D1B"/>
</g>
<g clip-path="url(#clip0_374_14576)">
<mask id="mask14_374_14576" style="mask-type:luminance" maskUnits="userSpaceOnUse" x="560" y="28" width="185" height="25">
<path d="M744.091 28.002H560.662V52.002H744.091V28.002Z" fill="white"/>
</mask>
<g mask="url(#mask14_374_14576)">
<path d="M566.34 28.0247C565.201 28.158 564.041 28.6975 562.883 29.6296L562.861 29.6451H562.84C562.698 29.6245 562.555 29.6162 562.411 29.6205C561.917 29.6626 561.459 29.8935 561.133 30.2645C560.807 30.6355 560.637 31.118 560.66 31.6106C560.702 32.1033 560.935 32.5604 561.309 32.8855C561.684 33.2106 562.17 33.3784 562.666 33.3534C563.085 33.3231 563.482 33.1549 563.795 32.8752C564.108 32.5956 564.318 32.2204 564.393 31.8088V31.7914L564.407 31.7795C565.146 31.1076 565.903 30.7753 566.711 30.7753C566.802 30.7753 566.9 30.7753 566.995 30.7881C568.078 30.9141 569.225 31.6097 570.503 32.9052C571.758 34.1851 573.042 35.9069 574.243 37.5775L575.999 40.0525C576.741 41.0959 577.506 42.1751 578.283 43.1857C578.969 44.0448 579.887 45.1293 580.898 45.8916C581.972 46.6995 583.021 47.0154 584.101 46.8547L584.448 46.7935L584.25 46.5571C582.208 44.4227 580.559 41.9924 579.355 40.2232L577.299 37.2507C575.832 35.1437 574.45 33.1535 573.002 31.5696C570.841 29.1585 568.926 28.0247 566.967 28.0018C566.757 27.9982 566.548 28.0059 566.34 28.0247Z" fill="#A933FB"/>
<path d="M564.472 38.5082V38.5265C564.438 38.9777 564.242 39.4017 563.921 39.7219C563.599 40.042 563.174 40.2371 562.72 40.272C562.689 40.272 562.658 40.272 562.629 40.272C562.13 40.2933 561.643 40.1166 561.276 39.7807C560.908 39.4447 560.689 38.9772 560.668 38.4808C560.646 37.9845 560.824 37.5 561.161 37.134C561.499 36.7679 561.969 36.5503 562.467 36.529H562.615L565.668 33.4177C565.886 33.1927 566.149 33.0154 566.44 32.8971C566.73 32.7787 567.043 32.7219 567.356 32.7303C567.656 32.736 567.952 32.8044 568.224 32.931C568.495 33.0576 568.737 33.2396 568.934 33.4652L569.038 33.6095L564.472 38.5082Z" fill="#1EACFC"/>
<path d="M562.632 43.2997H562.592C562.094 43.2997 561.617 43.4966 561.265 43.847C560.913 44.1974 560.715 44.6728 560.715 45.1684C560.715 45.664 560.913 46.1394 561.265 46.4898C561.617 46.8403 562.094 47.0372 562.592 47.0372C562.678 47.0353 562.763 47.027 562.847 47.0126L562.884 47.0071C563.302 46.9433 563.686 46.7395 563.971 46.4292C564.257 46.1189 564.428 45.7208 564.456 45.3008V45.2825L572.202 36.9384L570.518 34.9189L562.632 43.2997Z" fill="#FFB600"/>
<path d="M590.914 48.1918C592.346 48.032 593.757 47.2487 595.244 45.7954L595.259 45.7807H595.487C595.977 45.7389 596.43 45.5058 596.748 45.1325C597.066 44.7592 597.223 44.2758 597.185 43.7878C597.143 43.2952 596.91 42.838 596.537 42.5124C596.163 42.1868 595.677 42.0183 595.181 42.0423C594.728 42.0723 594.303 42.2663 593.985 42.5878C593.667 42.9091 593.478 43.3354 593.455 43.786V43.8042L593.443 43.8179C592.393 45.0047 591.341 45.5351 590.233 45.4246C589.15 45.2987 588.003 44.6031 586.725 43.3076C585.468 42.0295 584.186 40.3086 582.988 38.6389L581.224 36.1548C580.49 35.1132 579.72 34.0368 578.946 33.029C578.26 32.1699 577.342 31.0853 576.331 30.323C575.258 29.5151 574.208 29.1992 573.128 29.3599L572.797 29.3982L573.028 29.6292C575.07 31.7645 576.72 34.1938 577.925 35.9649L579.624 38.4244C581.345 40.965 582.79 42.9954 584.253 44.6459C586.41 47.0579 588.328 48.1918 590.289 48.2146C590.497 48.2176 590.706 48.2099 590.914 48.1918Z" fill="#0074E8"/>
<path d="M595.336 39.2469H595.436C595.682 39.2374 595.924 39.1783 596.147 39.0732C596.37 38.9681 596.569 38.819 596.732 38.6352C596.896 38.4514 597.02 38.2364 597.098 38.0034C597.176 37.7705 597.205 37.5242 597.185 37.2796C597.144 36.803 596.925 36.3591 596.571 36.0355C596.217 35.712 595.755 35.5323 595.274 35.5322C595.243 35.5322 595.213 35.5322 595.182 35.5322C594.72 35.5648 594.285 35.7658 593.962 36.0968C593.639 36.4279 593.449 36.8658 593.43 37.3271V37.3471L588.246 42.8831L588.346 43.0027C588.546 43.2309 588.792 43.4146 589.068 43.5415C589.344 43.6685 589.643 43.7359 589.947 43.7394H589.993C590.296 43.7401 590.596 43.6795 590.875 43.5612C591.153 43.4428 591.405 43.2693 591.614 43.0511L595.336 39.2469Z" fill="#FB24A9"/>
<path d="M585.057 39.533L586.764 41.5552L595.488 32.2807H595.507C595.993 32.2339 596.442 31.9983 596.756 31.6249C597.07 31.2516 597.224 30.7703 597.184 30.285C597.142 29.7924 596.91 29.3351 596.536 29.0097C596.162 28.6842 595.676 28.516 595.18 28.5404C594.687 28.5738 594.226 28.7991 593.899 29.1675C593.571 29.536 593.402 30.0181 593.428 30.5096V30.5315L585.057 39.533Z" fill="#FF8500"/>
<path d="M604.775 44.8725L606.825 42.6642C608.176 44.0801 610.057 44.8963 612.156 44.8963C614.736 44.8963 615.895 43.8921 615.895 42.3273C615.895 40.6229 614.278 40.1673 611.504 39.5182C608.417 38.7742 605.427 37.718 605.427 34.1411C605.43 30.9477 607.894 28.6416 612.28 28.6416C615.15 28.6416 617.345 29.5774 619.009 31.2097L617.104 33.4445C615.825 32.1482 614.21 31.3557 612.232 31.3557C609.988 31.3557 608.88 32.412 608.88 33.8051C608.88 35.4849 610.423 35.8455 613.148 36.5174C616.405 37.3336 619.323 38.3433 619.323 41.995C619.323 45.3081 616.766 47.6132 612.135 47.6132C608.952 47.6095 606.564 46.6491 604.775 44.8725ZM631.967 34.4533L626.685 48.2093C625.676 50.8504 624.465 52.0025 622.078 52.0025C621.473 52.0119 620.87 51.9227 620.293 51.7387V49.3861C620.664 49.4789 621.045 49.5273 621.427 49.5303C622.584 49.5303 623.261 49.0985 623.72 47.6579L618.654 34.4533H622.102L625.358 43.9843H625.411L628.667 34.4533H631.967ZM636.355 36.1815C637.175 34.9089 638.429 34.1886 640.141 34.1886C641.902 34.1886 643.277 34.9572 643.952 36.2536C644.869 34.8614 646.292 34.1886 648.028 34.1886C650.681 34.1886 652.441 35.8455 652.441 38.3424V47.3457H649.186V38.8664C649.186 37.6668 648.486 36.7301 647.015 36.7301C645.424 36.7301 644.434 37.8348 644.434 39.3229V47.3421H641.178V38.8664C641.178 37.6668 640.455 36.7301 639.032 36.7301C637.44 36.7301 636.427 37.8348 636.427 39.3229V47.3421H633.171V34.4533H636.233L636.306 36.1815H636.355ZM657.45 45.6887H657.401V51.7387H654.146V34.4533H657.209L657.281 36.3705H657.329C658.318 35.0011 659.814 34.1858 661.526 34.1858C665.023 34.1858 667.097 37.0671 667.097 40.8365C667.097 44.606 664.927 47.6067 661.43 47.6067C659.74 47.6095 658.414 46.913 657.45 45.6887ZM663.793 40.8867C663.793 38.7021 662.805 36.7338 660.537 36.7338C658.391 36.7338 657.306 38.6062 657.306 40.9598C657.306 43.3334 658.439 45.0679 660.515 45.0679C662.707 45.0643 663.793 43.2156 663.793 40.8867ZM668.799 28.9073H672.055V36.2052H672.104C672.924 34.9335 674.274 34.1886 676.011 34.1886C678.688 34.1886 680.424 35.9414 680.424 38.5825V47.3466H677.168V39.1119C677.168 37.791 676.396 36.7383 674.853 36.7383C673.116 36.7383 672.055 37.9626 672.055 39.5949V47.3502H668.799V28.9073ZM682.159 40.9113C682.159 37.0698 684.523 34.1886 688.816 34.1886C693.134 34.1886 695.472 37.0698 695.472 40.9113C695.472 44.7283 693.109 47.6095 688.816 47.6095C684.498 47.6095 682.159 44.7283 682.159 40.9113ZM685.461 40.9113C685.461 43.2849 686.57 45.1108 688.813 45.1108C691.056 45.1108 692.166 43.2849 692.166 40.9113C692.166 38.5104 691.057 36.6855 688.813 36.6855C686.569 36.6855 685.464 38.5104 685.464 40.9113H685.461ZM697.173 34.4533H700.236L700.307 36.2792H700.356C701.152 34.9828 702.551 34.1904 704.311 34.1904C707.038 34.1904 708.798 35.9679 708.798 38.6327V47.3475H705.542V39.1129C705.542 37.7919 704.745 36.7393 703.226 36.7393C701.49 36.7393 700.429 37.9635 700.429 39.5958V47.3511H697.173V34.4533ZM722.744 34.4533L717.462 48.2093C716.454 50.8504 715.243 52.0025 712.856 52.0025C712.251 52.0118 711.648 51.9226 711.072 51.7387V49.3861C711.443 49.4789 711.823 49.5273 712.205 49.5303C713.363 49.5303 714.04 49.0985 714.498 47.6579L709.434 34.4533H712.882L716.14 43.9843H716.187L719.443 34.4533H722.744ZM734.321 42.8322H726.602L724.986 47.3457H721.489L728.459 28.9045H732.586L739.556 47.3457H735.939L734.321 42.8322ZM733.332 40.0934L730.489 32.1701H730.44L727.597 40.0934H733.332ZM740.662 47.3439V28.9073H744.089V47.3484L740.662 47.3439Z" fill="#250144"/>
</g>
</g>
<path d="M922.527 50.7422C922.467 50.7422 922.406 50.7271 922.361 50.6819L900.601 28.9067C900.511 28.8162 900.511 28.6806 900.601 28.5902C900.691 28.4999 900.827 28.4999 900.917 28.5902L922.693 50.3655C922.783 50.456 922.783 50.5916 922.693 50.6819C922.648 50.7121 922.587 50.7422 922.527 50.7422Z" fill="#0626A9"/>
<path d="M900.782 50.7578C900.722 50.7578 900.662 50.7427 900.617 50.6976C900.526 50.6072 900.526 50.4716 900.617 50.3811L922.392 28.6209C922.482 28.5305 922.618 28.5305 922.708 28.6209C922.799 28.7114 922.799 28.8468 922.708 28.9373L900.948 50.6976C900.903 50.7427 900.843 50.7578 900.782 50.7578Z" fill="#0626A9"/>
<path d="M911.693 55.2637C911.572 55.2637 911.467 55.1583 911.467 55.0375V24.2358C911.467 24.1152 911.572 24.0097 911.693 24.0097C911.813 24.0097 911.919 24.1152 911.919 24.2358V55.0375C911.919 55.1583 911.813 55.2637 911.693 55.2637Z" fill="#0626A9"/>
<path d="M927.094 39.8623H896.277C896.156 39.8623 896.051 39.7568 896.051 39.6362C896.051 39.5157 896.156 39.4102 896.277 39.4102H927.079C927.199 39.4102 927.305 39.5157 927.305 39.6362C927.305 39.7568 927.214 39.8623 927.094 39.8623Z" fill="#0626A9"/>
<path d="M924.998 32.1621H898.25C898.129 32.1621 898.023 32.0566 898.023 31.936C898.023 31.8155 898.129 31.71 898.25 31.71H924.998C925.118 31.71 925.224 31.8155 925.224 31.936C925.224 32.0566 925.118 32.1621 924.998 32.1621Z" fill="#0626A9"/>
<path d="M924.967 47.5625H898.249C898.129 47.5625 898.023 47.4572 898.023 47.3364C898.023 47.2159 898.129 47.1104 898.249 47.1104H924.967C925.088 47.1104 925.194 47.2159 925.194 47.3364C925.194 47.4572 925.103 47.5625 924.967 47.5625Z" fill="#0626A9"/>
<path d="M911.693 55.2637C911.572 55.2637 911.467 55.1583 911.467 55.0375V24.2358C911.467 24.1152 911.572 24.0097 911.693 24.0097C911.813 24.0097 911.919 24.1152 911.919 24.2358V55.0375C911.919 55.1583 911.813 55.2637 911.693 55.2637Z" fill="#0626A9"/>
<path d="M903.992 53.1533C903.871 53.1533 903.766 53.0478 903.766 52.9272V26.2696C903.766 26.1489 903.871 26.0435 903.992 26.0435C904.112 26.0435 904.218 26.1489 904.218 26.2696V52.9272C904.218 53.0628 904.112 53.1533 903.992 53.1533Z" fill="#0626A9"/>
<path d="M919.392 53.1533C919.272 53.1533 919.166 53.0478 919.166 52.9272V26.3147C919.166 26.194 919.272 26.0886 919.392 26.0886C919.513 26.0886 919.618 26.194 919.618 26.3147V52.9272C919.618 53.0628 919.513 53.1533 919.392 53.1533Z" fill="#0626A9"/>
<path d="M927.093 39.8623C927.033 39.8623 926.973 39.8472 926.928 39.8019L911.527 24.386C911.436 24.2956 911.436 24.1599 911.527 24.0695C911.617 23.9792 911.753 23.9792 911.843 24.0695L927.244 39.4704C927.335 39.561 927.335 39.6966 927.244 39.7869C927.199 39.8322 927.154 39.8623 927.093 39.8623Z" fill="#0626A9"/>
<path d="M911.691 55.2637C911.631 55.2637 911.571 55.2485 911.525 55.2033L896.125 39.8025C896.034 39.712 896.034 39.5765 896.125 39.486C896.215 39.3955 896.35 39.3955 896.441 39.486L911.842 54.887C911.932 54.9773 911.932 55.1131 911.842 55.2033C911.797 55.2485 911.736 55.2637 911.691 55.2637Z" fill="#0626A9"/>
<path d="M911.693 55.2637C911.632 55.2637 911.572 55.2485 911.527 55.2033C911.436 55.1131 911.436 54.9773 911.527 54.887L926.928 39.486C927.018 39.3955 927.154 39.3955 927.244 39.486C927.335 39.5765 927.335 39.712 927.244 39.8025L911.843 55.2033C911.798 55.2485 911.738 55.2637 911.693 55.2637Z" fill="#0626A9"/>
<path d="M896.277 39.8623C896.216 39.8623 896.156 39.8472 896.111 39.8019C896.02 39.7116 896.02 39.5759 896.111 39.4856L911.527 24.0695C911.617 23.9792 911.753 23.9792 911.843 24.0695C911.934 24.1599 911.934 24.2956 911.843 24.386L896.442 39.8019C896.397 39.8322 896.337 39.8623 896.277 39.8623Z" fill="#0626A9"/>
<path d="M911.647 24.4612C903.283 24.4612 896.472 31.2726 896.472 39.621C896.472 47.9845 903.283 54.7808 911.647 54.7808C920.01 54.7808 926.822 47.9845 926.822 39.621C926.822 31.2576 920.01 24.4612 911.647 24.4612ZM911.647 55.248C903.027 55.248 896.02 48.2408 896.02 39.6361C896.02 31.0163 903.027 24.0242 911.647 24.0242C920.266 24.0242 927.273 31.0315 927.273 39.6361C927.273 48.2408 920.266 55.248 911.647 55.248Z" fill="#0626A9"/>
<path d="M912.974 39.6216C912.974 40.3449 912.386 40.9326 911.663 40.9326C910.939 40.9326 910.352 40.3449 910.352 39.6216C910.352 38.8983 910.939 38.3106 911.663 38.3106C912.401 38.3255 912.974 38.8983 912.974 39.6216Z" fill="#0626A9"/>
<path d="M912.657 47.3372C912.657 47.8798 912.22 48.3018 911.693 48.3018C911.165 48.3018 910.729 47.8646 910.729 47.3372C910.729 46.8099 911.165 46.3727 911.693 46.3727C912.22 46.3727 912.657 46.7947 912.657 47.3372Z" fill="#0626A9"/>
<path d="M904.956 31.936C904.956 32.4634 904.519 32.9004 903.992 32.9004C903.464 32.9004 903.027 32.4634 903.027 31.936C903.027 31.3935 903.464 30.9715 903.992 30.9715C904.519 30.9715 904.956 31.3935 904.956 31.936Z" fill="#0626A9"/>
<path d="M905.288 47.3364C905.288 48.0598 904.7 48.6475 903.977 48.6475C903.254 48.6475 902.666 48.0598 902.666 47.3364C902.666 46.6133 903.254 46.0254 903.977 46.0254C904.715 46.0254 905.288 46.6133 905.288 47.3364Z" fill="#0626A9"/>
<path d="M928.058 39.6362C928.058 40.1636 927.621 40.6006 927.093 40.6006C926.566 40.6006 926.129 40.1636 926.129 39.6362C926.129 39.0937 926.566 38.6717 927.093 38.6717C927.621 38.6717 928.058 39.0937 928.058 39.6362Z" fill="#0626A9"/>
<path d="M912.657 55.0374C912.657 55.5648 912.22 56.002 911.693 56.002C911.165 56.002 910.729 55.5648 910.729 55.0374C910.729 54.5101 911.165 54.0729 911.693 54.0729C912.22 54.0729 912.657 54.5101 912.657 55.0374Z" fill="#1226AA"/>
<path d="M920.688 52.9272C920.688 53.6506 920.101 54.2383 919.377 54.2383C918.654 54.2383 918.066 53.6506 918.066 52.9272C918.066 52.2039 918.654 51.6162 919.377 51.6162C920.116 51.6312 920.688 52.2039 920.688 52.9272Z" fill="#0626A9"/>
<path d="M899.214 47.3372C899.214 47.8798 898.777 48.3018 898.25 48.3018C897.722 48.3018 897.285 47.8646 897.285 47.3372C897.285 46.8099 897.722 46.3727 898.25 46.3727C898.777 46.3727 899.214 46.7947 899.214 47.3372Z" fill="#0626A9"/>
<path d="M920.688 26.3149C920.688 27.0383 920.101 27.626 919.377 27.626C918.654 27.626 918.066 27.0383 918.066 26.3149C918.066 25.5916 918.654 25.0039 919.377 25.0039C920.116 25.0039 920.688 25.5916 920.688 26.3149Z" fill="#0626A9"/>
<path d="M899.546 31.9507C899.546 32.674 898.958 33.2617 898.235 33.2617C897.511 33.2617 896.924 32.674 896.924 31.9507C896.924 31.2274 897.511 30.6397 898.235 30.6397C898.973 30.6546 899.546 31.2425 899.546 31.9507Z" fill="#0626A9"/>
<path d="M925.962 31.936C925.962 32.4634 925.525 32.9004 924.997 32.9004C924.47 32.9004 924.033 32.4634 924.033 31.936C924.033 31.3935 924.47 30.9715 924.997 30.9715C925.525 30.9715 925.962 31.3935 925.962 31.936Z" fill="#0626A9"/>
<path d="M920.357 39.6518C920.357 40.1942 919.92 40.6162 919.392 40.6162C918.865 40.6162 918.428 40.1793 918.428 39.6518C918.428 39.1243 918.865 38.6873 919.392 38.6873C919.92 38.6873 920.357 39.1093 920.357 39.6518Z" fill="#0626A9"/>
<path d="M901.732 28.7416C901.732 29.2691 901.295 29.7061 900.767 29.7061C900.24 29.7061 899.803 29.2691 899.803 28.7416C899.803 28.2142 900.24 27.7772 900.767 27.7772C901.295 27.7772 901.732 28.2142 901.732 28.7416Z" fill="#0626A9"/>
<path d="M828.675 28.7865H824.968C824.877 28.7865 824.802 28.8316 824.772 28.9071L818.518 40.5104L812.204 28.9071C812.159 28.8316 812.083 28.7865 812.008 28.7865H808.316C808.195 28.7865 808.09 28.892 808.09 29.0126V50.8481C808.09 50.9686 808.195 51.0742 808.316 51.0742H811.857C811.978 51.0742 812.083 50.9686 812.083 50.8481V36.5925L817.644 46.2972C817.689 46.3725 817.764 46.4178 817.84 46.4178H819.136C819.211 46.4178 819.286 46.3725 819.332 46.2972L824.862 36.5623V50.8331C824.862 50.9536 824.968 51.0591 825.088 51.0591H828.66C828.72 51.0591 828.78 51.029 828.825 50.9988C828.871 50.9536 828.886 50.8934 828.886 50.8331V29.0126C828.901 28.8769 828.795 28.7865 828.675 28.7865Z" fill="#011B2B"/>
<path d="M884.221 28.7256H880.89C880.77 28.7256 880.664 28.8311 880.664 28.9517V50.9078C880.664 51.0284 880.77 51.1338 880.89 51.1338H884.221C884.341 51.1338 884.447 51.0284 884.447 50.9078V28.9517C884.447 28.8161 884.356 28.7256 884.221 28.7256Z" fill="#011B2B"/>
<path d="M875.073 47.0201L872.662 44.5788C872.571 44.4884 872.436 44.4884 872.345 44.5788C870.567 46.2364 868.954 47.2612 866.363 47.2612C862.475 47.2612 859.536 44.1117 859.536 39.9224V39.8621C859.536 37.873 860.229 36.0345 861.48 34.6782C862.746 33.307 864.479 32.5534 866.363 32.5534C868.457 32.5534 870.25 33.3522 872.194 35.1455C872.24 35.1906 872.3 35.2057 872.36 35.2057C872.42 35.2057 872.481 35.1756 872.526 35.1303L874.937 32.3575C875.012 32.2671 875.012 32.1315 874.922 32.041C873.174 30.3684 870.778 28.6505 866.408 28.6505C860.003 28.6505 855.166 33.5028 855.166 39.9224V39.9827C855.166 43.0268 856.296 45.8447 858.331 47.9393C860.395 50.0492 863.198 51.1943 866.257 51.1943C868.789 51.1943 871.818 50.7422 875.088 47.3365C875.163 47.2463 875.163 47.1105 875.073 47.0201Z" fill="#011B2B"/>
<path d="M848.748 39.9376C847.708 39.1088 846.352 38.5664 844.393 38.1745C844.378 38.1745 844.333 38.1595 844.287 38.1444C844.257 38.1444 844.227 38.1293 844.197 38.1293C844.001 38.0842 843.564 37.9937 843.112 37.9033C842.63 37.8129 842.117 37.7074 841.967 37.6622C840.776 37.3307 840.068 37.0142 839.646 36.6072C839.239 36.2305 839.043 35.7333 839.013 35.0854V35.025V34.8443C839.073 33.4579 840.158 32.4783 841.861 32.2673C842.283 32.2222 842.69 32.2071 843.097 32.2372C844.815 32.3577 846.276 32.9455 847.603 34.0154C847.663 34.0757 847.783 34.0907 847.859 34.0606H847.874C847.934 34.0606 847.994 34.0304 848.04 33.9852L850.059 31.5892C850.134 31.4987 850.134 31.3481 850.029 31.2728C847.919 29.4494 845.628 28.6356 842.6 28.6356C838.094 28.6356 835.065 31.2578 835.065 35.1757V35.2511C835.065 37.0593 835.607 38.4308 836.692 39.4554C837.672 40.3746 839.103 41.0227 841.047 41.4296C841.168 41.4597 841.469 41.5201 841.771 41.5801C841.982 41.6254 842.178 41.6555 842.268 41.6858C842.404 41.7159 842.705 41.776 842.991 41.8213C843.263 41.8665 843.534 41.9269 843.624 41.9419C844.709 42.2131 845.417 42.4241 845.945 42.8459C846.548 43.3132 846.804 43.9009 846.819 44.7598V44.8202C846.819 46.3723 845.598 47.397 843.564 47.5627C843.338 47.5779 843.097 47.5929 842.856 47.5929C842.645 47.5929 842.434 47.5929 842.223 47.5779C840.113 47.4271 838.47 46.7189 836.918 45.2873C836.858 45.227 836.768 45.2119 836.707 45.227H836.692C836.632 45.227 836.572 45.2572 836.526 45.3024L834.326 47.6985C834.236 47.7889 834.251 47.9245 834.341 48.0148C836.632 50.1848 839.405 51.2246 842.826 51.2246C847.678 51.2246 850.797 48.6175 850.797 44.5941V44.5338C850.812 42.5597 850.119 41.0076 848.748 39.9376Z" fill="#011B2B"/>
<path d="M904.956 26.3149C904.956 26.8423 904.519 27.2793 903.992 27.2793C903.464 27.2793 903.027 26.8423 903.027 26.3149C903.027 25.7724 903.464 25.3504 903.992 25.3504C904.519 25.3504 904.956 25.7874 904.956 26.3149Z" fill="#0626A9"/>
<g clip-path="url(#clip1_374_14576)">
<path d="M1013.26 56.0264C1013.44 57.6033 1011.61 68.6209 1030.47 72.2671C1049.13 75.8739 1072.37 66.3544 1072.37 66.3544H1073.71C1073.71 66.3544 1053.29 76.4652 1032.4 73.4693C1011.51 70.4736 1012.56 58.4704 1012.48 56.0264H1013.26Z" fill="#00A7E4"/>
<path d="M1052.26 66.3346C1052.26 66.3346 1038.75 74.1198 1028.75 74.5731C1018.76 75.0263 1010.13 71.4984 1012.73 56.0264H1011.94C1011.94 56.0264 1009.7 69.3303 1017.4 73.4102C1025.11 77.49 1035.16 77.8448 1056.72 66.3346H1052.26Z" fill="#00A7E4"/>
<path d="M1004.34 33.5181V41.0275H995.606V33.5181H992.059V50.4485H995.586V42.545H1004.32V48.6155C1004.31 48.9441 1004.38 49.2693 1004.53 49.5617C1004.68 49.7882 1004.87 49.9773 1005.1 50.1133C1005.32 50.2393 1005.56 50.326 1005.81 50.3696C1006.04 50.4063 1006.26 50.4261 1006.48 50.4287H1007.84V33.4983H1004.34V33.5181ZM1073.45 50.4485V33.5181H1070L1063.08 46.0532L1056.03 33.5181H1052.52V50.4485H1054.33V37.3219L1061.76 50.4485H1062.69L1069.92 37.4205V48.6155C1069.91 48.9468 1069.99 49.2746 1070.16 49.5617C1070.3 49.7873 1070.48 49.9765 1070.71 50.1133C1070.93 50.2479 1071.18 50.3352 1071.44 50.3696C1071.67 50.4074 1071.9 50.4271 1072.13 50.4287H1073.45L1073.45 50.4485ZM1095.64 50.4485L1086.79 33.1436H1085.77L1076.7 50.4485H1078.77L1081.59 45.0679H1088.01L1087.13 43.3335H1082.5L1085.47 37.6373L1091.3 49.0886C1091.49 49.5006 1091.78 49.8547 1092.15 50.1133C1092.55 50.3419 1093.01 50.4513 1093.47 50.4287H1095.64V50.4485ZM1114.03 33.5181C1113.91 33.5159 1113.8 33.5226 1113.69 33.5378C1113.56 33.5541 1113.44 33.6015 1113.34 33.6757C1113.22 33.7536 1113.12 33.8542 1113.04 33.9714C1112.96 34.115 1112.92 34.2788 1112.92 34.4445V45.3636L1101.16 33.5181H1098.89V50.4485H1100.96V37.6767L1112.9 50.0148C1113.4 50.4682 1114.07 50.4287 1114.72 50.4287H1114.95V33.4983H1114.03V33.5181Z" fill="#006499"/>
<path d="M1076.7 14.4785C1068.8 13.8085 1059.77 14.7545 1053.74 15.9766C1046.39 17.4745 1039.53 19.5439 1033.07 22.3819C1031.59 23.0324 1030.17 23.742 1028.77 24.4908C1033.46 20.9522 1038.45 17.8264 1043.67 15.1487C1058.77 7.4621 1074.59 4.54504 1082.08 10.1227C1084.03 11.5316 1085.34 13.6474 1085.75 16.0158C1082.78 15.2419 1079.76 14.7276 1076.7 14.4785ZM1025.99 26.718C1025.99 26.718 1030.11 24.3728 1033.21 23.0718C1040.81 19.8396 1047.52 17.9475 1053.68 16.7845C1058.67 15.8387 1073.84 13.4735 1085.89 17.2576C1086.08 20.0564 1085.31 23.2887 1083.78 26.7377H1088.72C1089.94 24.1954 1090.77 21.7317 1091.15 19.4453C1093.01 20.4328 1094.71 21.6879 1096.21 23.1704C1097.59 24.55 1098.91 26.7377 1098.91 26.7377H1101.1C1100.34 25.1819 1099.33 23.7631 1098.1 22.5396C1096.19 20.5884 1093.83 19.1102 1091.32 17.987C1091.7 13.5326 1090.24 9.74815 1086.5 7.14672C1077.55 0.898859 1059.81 4.48596 1043.46 13.2566C1036.48 17.0089 1029.95 21.5308 1023.98 26.7378H1025.99V26.718Z" fill="#00A7E4"/>
<path d="M1021.29 33.1436H1020.24L1011.18 50.4485H1013.25L1019.95 37.657L1022.84 43.3532H1018.19L1017.29 45.0876H1023.73L1025.76 49.128C1025.94 49.54 1026.24 49.8941 1026.61 50.1528C1027.01 50.3814 1027.47 50.4908 1027.93 50.4682H1030.09L1021.29 33.1436ZM1036.99 34.9962V41.4018H1038.63C1038.63 41.4018 1040.24 41.4215 1041.31 40.8304C1042.37 40.239 1043.1 39.3914 1043.1 38.1301C1043.09 36.8803 1042.32 35.7647 1041.15 35.3116C1040.57 35.0824 1039.96 34.9751 1039.34 34.9962H1036.99ZM1044.03 49.0886L1038.81 42.7027H1036.99V50.4485H1033.46V33.5181H1039.95C1039.95 33.5181 1042.63 33.4786 1044.38 34.346C1046.14 35.213 1046.89 36.4549 1046.89 38.0118C1046.89 39.5688 1045.94 41.4215 1042.59 42.3479L1049.35 50.4288H1046.65C1046.23 50.4153 1045.81 50.3423 1045.41 50.212C1044.74 49.9952 1044.03 49.0886 1044.03 49.0886Z" fill="#006499"/>
<path d="M1039.75 56.736L1038.75 58.9434H1040.76L1039.75 56.736ZM1042.02 60.8553H1041.64L1040.89 59.2391H1038.61L1037.86 60.8553H1037.48L1039.65 56.1446H1039.85L1042.02 60.8553ZM1084.92 56.8937C1084.41 56.6005 1083.83 56.4443 1083.24 56.4403C1082.1 56.4514 1081.18 57.3867 1081.2 58.5296C1081.21 59.6725 1082.14 60.5903 1083.28 60.5793C1083.87 60.565 1084.45 60.4023 1084.96 60.1065V60.4807C1084.45 60.7592 1083.88 60.9082 1083.3 60.9144C1081.88 60.9144 1080.82 59.8897 1080.82 58.5098C1080.82 58.1894 1080.89 57.8723 1081.01 57.5771C1081.14 57.282 1081.32 57.0147 1081.55 56.7908C1081.78 56.5669 1082.05 56.391 1082.35 56.2733C1082.65 56.1556 1082.96 56.0985 1083.28 56.1053C1083.86 56.1206 1084.42 56.2548 1084.94 56.4995V56.8937H1084.92ZM1088.31 56.4403C1087.17 56.4512 1086.25 57.3827 1086.26 58.5228C1086.27 59.6632 1087.2 60.5829 1088.34 60.5793C1089.48 60.5757 1090.4 59.6502 1090.4 58.5098C1090.4 58.2365 1090.34 57.9661 1090.24 57.714C1090.13 57.4619 1089.98 57.2331 1089.78 57.0408C1089.59 56.8485 1089.36 56.6964 1089.11 56.5934C1088.85 56.4903 1088.58 56.4383 1088.31 56.4403ZM1088.29 60.9144C1086.97 60.8724 1085.93 59.7767 1085.96 58.4576C1085.99 57.1387 1087.07 56.0884 1088.39 56.1029C1089.71 56.117 1090.77 57.1909 1090.77 58.5098C1090.77 58.8319 1090.71 59.1505 1090.58 59.4469C1090.45 59.7432 1090.27 60.0113 1090.04 60.2354C1089.81 60.4594 1089.53 60.635 1089.23 60.7516C1088.93 60.8682 1088.61 60.9235 1088.29 60.9144ZM1095.94 56.1643H1096.29V60.8553H1095.94V56.6966H1095.92L1094.14 58.8844L1092.37 56.6966H1092.35V60.8553H1091.99V56.1645H1092.35L1094.14 58.3522L1095.94 56.1643ZM1098.06 58.3521H1098.93C1099.8 58.3521 1100.13 57.9384 1100.13 57.4063C1100.13 56.8739 1099.8 56.46 1098.97 56.46H1098.06L1098.06 58.3521ZM1098.99 56.1644C1100.09 56.1644 1100.53 56.736 1100.53 57.4063C1100.53 58.0173 1100.17 58.6675 1098.97 58.6675H1098.08V60.8553H1097.73V56.1644H1098.99ZM1102.7 56.736L1101.69 58.9434H1103.7L1102.7 56.736ZM1104.96 60.8553H1104.59L1103.84 59.2391H1101.55L1100.8 60.8553H1100.43L1102.6 56.1446H1102.79L1104.96 60.8553ZM1110.09 60.8553H1109.79L1106.22 56.7557V60.8553H1105.87V56.1644H1106.16L1109.71 60.2639V56.1643H1110.09V60.8553ZM1113.14 58.3324V60.8553H1112.79V58.3324L1110.95 56.1644H1111.41L1112.96 58.0173L1114.52 56.1643H1114.97L1113.14 58.3324ZM1047.08 59.5545C1047.12 59.6695 1047.12 59.7944 1047.08 59.9093C1047.06 60.0108 1047 60.1007 1046.92 60.1596C1046.83 60.2185 1046.73 60.2418 1046.63 60.2245C1046.57 60.2313 1046.51 60.2252 1046.45 60.2063C1046.39 60.1875 1046.34 60.1565 1046.29 60.1154C1046.25 60.0743 1046.21 60.0242 1046.19 59.9682C1046.17 59.9123 1046.15 59.8518 1046.16 59.7911V59.3377H1044.89V59.6925C1044.89 60.7567 1045.72 61.0721 1046.61 61.0721C1047.46 61.0721 1048.17 60.7764 1048.28 59.9882C1048.33 59.7337 1048.33 59.4738 1048.28 59.2194C1048.09 58.2339 1046.29 57.9384 1046.16 57.3865C1046.14 57.3022 1046.14 57.2145 1046.16 57.1303C1046.17 57.0327 1046.23 56.946 1046.31 56.8875C1046.39 56.829 1046.49 56.8031 1046.59 56.8149C1046.65 56.8087 1046.71 56.8156 1046.76 56.8352C1046.82 56.8548 1046.87 56.8865 1046.91 56.9281C1046.95 56.9697 1046.98 57.0201 1047 57.0755C1047.02 57.1309 1047.03 57.1901 1047.02 57.2485V57.5442H1048.21V57.2091C1048.21 56.1841 1047.28 56.0264 1046.61 56.0264C1045.76 56.0264 1045.09 56.3024 1044.95 57.0711C1044.91 57.2801 1044.92 57.496 1044.97 57.7019C1045.17 58.6675 1046.85 58.9435 1047.08 59.5545ZM1062.43 59.5545C1062.46 59.6709 1062.46 59.7928 1062.43 59.9093C1062.41 60.0108 1062.36 60.1007 1062.27 60.1596C1062.19 60.2185 1062.08 60.2418 1061.98 60.2245C1061.68 60.2245 1061.51 60.0671 1061.51 59.8108V59.3574H1060.25V59.7122C1060.25 60.7567 1061.07 61.0721 1061.94 61.0721C1062.81 61.0721 1063.48 60.7764 1063.6 60.0079C1063.64 59.7533 1063.64 59.4935 1063.6 59.2391C1063.4 58.2536 1061.63 57.9581 1061.49 57.4259C1061.47 57.3484 1061.47 57.2669 1061.49 57.1894C1061.51 57.0918 1061.56 57.0051 1061.64 56.9466C1061.72 56.8881 1061.82 56.8622 1061.92 56.874C1061.98 56.8678 1062.04 56.8748 1062.09 56.8944C1062.15 56.914 1062.2 56.9457 1062.24 56.9872C1062.28 57.0288 1062.32 57.0792 1062.33 57.1346C1062.35 57.1901 1062.36 57.2492 1062.36 57.3077V57.6033H1063.52V57.2288C1063.52 56.2038 1062.61 56.0461 1061.94 56.0461C1061.11 56.0461 1060.42 56.3221 1060.31 57.0908C1060.26 57.2998 1060.27 57.5157 1060.33 57.7216C1060.54 58.6675 1062.2 58.9435 1062.43 59.5545ZM1072.25 59.9685L1072.17 56.1644H1073.33V60.8356H1071.66L1070.47 56.9134L1070.53 60.8356H1069.37V56.1643H1071.12L1072.25 59.9685ZM1051 56.5192L1050.35 60.8947H1049.07L1049.94 56.1644H1052.05L1052.92 60.8947H1051.65L1051 56.5192ZM1057.9 56.5192L1057.09 60.8947H1055.89L1055.08 56.5192L1055.04 60.8947H1053.86L1053.96 56.1644H1055.89L1056.48 59.8699L1057.09 56.1644H1059L1059.12 60.8947H1057.92L1057.9 56.5192ZM1066.39 60.1853C1066.5 60.1938 1066.6 60.1645 1066.68 60.1029C1066.77 60.0413 1066.83 59.9515 1066.85 59.8502C1066.86 59.7925 1066.87 59.7327 1066.87 59.6728V56.1841H1068.07V59.8897C1067.99 60.7764 1067.28 61.0524 1066.41 61.0524C1065.55 61.0524 1064.86 60.7764 1064.76 59.8897C1064.76 59.8305 1064.74 59.6728 1064.74 59.5743V56.1841H1065.94V59.6728C1065.94 59.7327 1065.94 59.7928 1065.96 59.8502C1065.98 59.9514 1066.03 60.0428 1066.11 60.1054C1066.19 60.1679 1066.29 60.1965 1066.39 60.1853ZM1076.25 60.1459C1076.36 60.161 1076.47 60.1326 1076.57 60.0666C1076.66 60.0006 1076.72 59.902 1076.74 59.7911C1076.76 59.7334 1076.76 59.6735 1076.76 59.6137V58.9238H1076.27V58.2339H1077.94V59.4954C1077.94 59.6009 1077.94 59.7062 1077.92 59.8108C1077.84 60.6779 1077.1 60.9735 1076.27 60.9735C1075.44 60.9735 1074.69 60.6582 1074.61 59.8108C1074.6 59.7062 1074.59 59.601 1074.59 59.4954V57.5048C1074.59 57.4259 1074.61 57.2682 1074.61 57.1894C1074.71 56.3024 1075.44 56.0264 1076.27 56.0264C1077.1 56.0264 1077.84 56.3024 1077.92 57.1894C1077.94 57.2942 1077.94 57.4 1077.92 57.5048V57.6624H1076.74V57.4062C1076.74 57.3465 1076.74 57.2869 1076.72 57.2288C1076.7 57.1246 1076.64 57.0329 1076.55 56.9711C1076.46 56.9093 1076.35 56.8818 1076.25 56.8937C1076.14 56.8856 1076.04 56.9146 1075.95 56.9758C1075.87 57.037 1075.8 57.1265 1075.78 57.2288C1075.76 57.2998 1075.75 57.3728 1075.76 57.4456V59.594C1075.75 59.6538 1075.76 59.7137 1075.78 59.7714C1075.79 59.8834 1075.85 59.9856 1075.94 60.0556C1076.02 60.1257 1076.14 60.1582 1076.25 60.1459Z" fill="black"/>
</g>
<g clip-path="url(#clip2_374_14576)">
<path d="M1192.44 35.113C1192.44 37.4107 1191.38 38.6819 1188.62 38.6819H1186.25V31.6602C1186.55 31.6297 1187.55 31.6114 1187.85 31.6114H1188.66C1191.48 31.6114 1192.44 32.8091 1192.44 35.113ZM1198.06 44.2797C1198.06 40.6557 1195.1 39.3419 1191.51 39.2624V39.128C1194.57 38.8774 1197.07 37.6002 1197.07 34.5202C1197.07 31.0919 1194.23 30.4502 1191.06 30.4502C1187.25 30.4502 1182.77 30.5541 1178.97 30.4502V31.6297C1179.77 31.5747 1181.73 31.6847 1181.73 32.693V47.2864C1181.73 48.2641 1179.72 48.3986 1178.97 48.3986V49.5474C1182.64 49.4497 1187.01 49.5474 1190.71 49.5474C1194.59 49.5474 1198.06 48.2336 1198.06 44.2797ZM1193.17 43.9069C1193.17 46.9074 1192.12 48.3314 1188.49 48.3314H1186.23V39.9224H1188.64C1191.96 39.9224 1193.19 41.0407 1193.19 43.8824L1193.17 43.9069Z" fill="#0079C1"/>
<path d="M1222.66 49.5167C1220.94 49.5167 1219.24 49.5167 1217.53 49.5472V48.3739C1218.31 48.3739 1220.46 48.3312 1220.46 47.2862V33.7317H1220.4L1212.69 49.7795H1211.76L1204.24 33.7012H1204.18V47.2862C1204.18 48.3555 1206.31 48.3739 1207.12 48.3739L1207.16 49.5472C1205.02 49.48 1202.12 49.4312 1200.02 49.5472V48.3739C1200.83 48.3739 1202.67 48.3067 1202.67 47.2862V32.6684C1202.67 31.6722 1200.77 31.5867 1200.02 31.5867V30.4072C1202.46 30.5112 1205.06 30.5112 1207.48 30.4072L1213.91 43.9678L1220.49 30.4562C1222.83 30.56 1225.47 30.5295 1227.83 30.4256V31.605C1227.05 31.605 1225.01 31.66 1225.01 32.6867V47.2862C1225.01 48.3312 1227.02 48.3739 1227.83 48.3739V49.5472C1226.1 49.4984 1224.36 49.5167 1222.66 49.5167Z" fill="#0079C1"/>
<path d="M1245.78 39.9654C1245.78 43.6321 1245.42 48.6982 1240 48.6982C1234.59 48.6982 1234.2 43.6076 1234.2 39.9654C1234.2 36.3232 1234.59 31.2693 1240 31.2693C1245.42 31.2693 1245.78 36.3354 1245.78 39.9654ZM1250.84 39.9654C1250.84 33.6404 1246.98 30.0898 1240 30.0898C1233.03 30.0898 1229.13 33.6098 1229.13 39.9654C1229.13 46.3209 1233 49.8654 1240 49.8654C1247.01 49.8654 1250.84 46.3271 1250.84 39.9654Z" fill="#0079C1"/>
<path d="M1283.22 18.002C1278.87 18.002 1274.62 19.2922 1271 21.7096C1267.38 24.127 1264.56 27.563 1262.9 31.5829C1261.23 35.6029 1260.8 40.0263 1261.65 44.294C1262.49 48.5616 1264.59 52.4815 1267.67 55.5583C1270.74 58.6351 1274.66 60.7304 1278.93 61.5792C1283.2 62.4281 1287.62 61.9925 1291.64 60.3273C1295.66 58.6622 1299.1 55.8424 1301.52 52.2245C1303.93 48.6066 1305.22 44.3531 1305.22 40.002C1305.22 34.1672 1302.9 28.5714 1298.78 24.4456C1294.65 20.3198 1289.06 18.002 1283.22 18.002Z" fill="#ED1C24"/>
<path d="M1282.55 33.2798L1278.73 28.2993C1278.65 28.1946 1278.55 28.1098 1278.43 28.0515C1278.31 27.9931 1278.18 27.9629 1278.05 27.9631C1277.93 27.9624 1277.8 27.9913 1277.68 28.0475C1277.57 28.1037 1277.47 28.1857 1277.39 28.287L1272.85 34.0131V42.9965L1277.38 37.197C1277.46 37.0925 1277.57 37.0079 1277.69 36.9497C1277.81 36.8914 1277.94 36.8612 1278.07 36.861C1278.21 36.8604 1278.34 36.8911 1278.46 36.9505C1278.58 37.0098 1278.69 37.0963 1278.77 37.2031L1282.61 42.2204C1282.68 42.3145 1282.77 42.3918 1282.88 42.4466C1282.98 42.5015 1283.1 42.5328 1283.22 42.5381C1283.34 42.534 1283.45 42.5034 1283.56 42.4484C1283.66 42.3934 1283.76 42.3155 1283.83 42.2204L1287.67 37.2031C1287.75 37.0973 1287.85 37.0115 1287.97 36.9523C1288.1 36.8931 1288.23 36.8619 1288.36 36.861C1288.5 36.8597 1288.63 36.8895 1288.75 36.9478C1288.87 37.0061 1288.97 37.0914 1289.05 37.197L1293.58 42.9904V34.007L1289.03 28.281C1288.95 28.1795 1288.85 28.0975 1288.73 28.0413C1288.62 27.9851 1288.49 27.9563 1288.36 27.957C1288.23 27.9582 1288.1 27.989 1287.98 28.0472C1287.87 28.1054 1287.76 28.1895 1287.68 28.2931L1283.9 33.2798C1283.82 33.3832 1283.71 33.4669 1283.6 33.5242C1283.48 33.5815 1283.35 33.6108 1283.22 33.6098C1283.09 33.6094 1282.96 33.5795 1282.85 33.5223C1282.73 33.4651 1282.63 33.3822 1282.55 33.2798ZM1293.61 49.5781H1272.83V42.9904H1293.61V49.5781Z" fill="white"/>
</g>
<g clip-path="url(#clip3_374_14576)">
<path d="M1374.92 30.9014C1371.12 30.9014 1369.22 33.2014 1369.22 36.6014V43.4014C1369.22 47.3014 1371.72 49.1014 1374.92 49.1014H1386.32L1384.22 45.7014H1375.62C1373.82 45.7014 1373.02 45.0014 1373.02 43.0014V36.9014C1373.02 34.9014 1373.72 34.1014 1375.72 34.1014H1384.32L1386.32 30.9014H1374.92Z" fill="black"/>
</g>
<defs>
<clipPath id="clip0_374_14576">
<rect width="183.429" height="80" fill="white" transform="translate(560.662 0.00195312)"/>
</clipPath>
<clipPath id="clip1_374_14576">
<rect width="122.914" height="80" fill="white" transform="translate(992.059 0.00195312)"/>
</clipPath>
<clipPath id="clip2_374_14576">
<rect width="126.249" height="80" fill="white" transform="translate(1178.97 0.00195312)"/>
</clipPath>
<clipPath id="clip3_374_14576">
<rect width="128" height="80" fill="white" transform="translate(1369.22 0.00195312)"/>
</clipPath>
</defs>
</svg>
